<?xml version="1.0" encoding="UTF-8" standalone="no"?>
<!-- Created with Inkscape (http://www.inkscape.org/) -->

<svg
   width="45.493641mm"
   height="45.686089mm"
   viewBox="0 0 45.493641 45.686089"
   version="1.1"
   id="svg1"
   xml:space="preserve"
   xmlns="http://www.w3.org/2000/svg"
   xmlns:svg="http://www.w3.org/2000/svg"><defs
     id="defs1"><clipPath
       clipPathUnits="userSpaceOnUse"
       id="clipPath8"><ellipse
         style="fill:#000000;fill-opacity:1;stroke:#000000;stroke-width:0.262537;stroke-opacity:1"
         id="ellipse8"
         cx="-101.54258"
         cy="-9.8406458"
         rx="81.999962"
         ry="81.396782" /></clipPath></defs><g
     id="layer6"><path
       style="fill:#98beee;fill-opacity:1;stroke:#000000;stroke-width:0.264583;stroke-opacity:1"
       d="m 18.418436,14.890393 c 0,-1.041798 -0.01595,-5.4697793 5.004714,-5.5000333 5.02066,-0.03025 5.235357,3.9487673 5.235357,5.3295493 v 5.496729 l 3.154172,-2.824245 0.04571,2.906837 3.531577,-3.095871 0.03732,2.91015 0.01812,5.017437 c 0.07988,4.438125 -4.620347,8.36091 -12.326145,8.411333 -7.14457,0.04675 -11.663466,-2.265801 -11.778776,-7.722291 -0.09732,-4.60531 -0.08158,-5.378921 -0.08158,-5.378921 1.626046,0 3.200636,-0.01596 4.466553,-0.03413 l 2.739711,-2.279013 c -0.02474,-0.988276 -0.04673,-2.167499 -0.04673,-3.237532 z"
       id="path2"
       transform="translate(-0.0381814,-0.329179)" /></g><g
     id="layer2"><path
       id="path1"
       style="fill:#ffffff;stroke:#000000;stroke-width:0.257437"
       d="m 26.95599,14.566175 a 3.4637032,3.4637032 0 0 1 -3.463703,3.463704 3.4637032,3.4637032 0 0 1 -3.463703,-3.463704 3.4637032,3.4637032 0 0 1 3.463703,-3.463703 3.4637032,3.4637032 0 0 1 3.463703,3.463703 z"
       transform="translate(-0.0381814,-0.329179)" /></g><g
     id="layer3"><path
       style="display:inline;fill:#ffbb61;fill-opacity:1;stroke:#000000;stroke-width:0.264583;stroke-opacity:1"
       d="m 18.407184,15.4538 c -0.104968,-0.01658 -3.958585,-4.426465 -10.1057308,-4.27848 -0.059386,5.34591 3.0097928,9.695863 3.0097928,9.695863 0,0 3.593429,1.990019 6.089159,0.09636 2.49573,-1.893659 1.006779,-5.513742 1.006779,-5.513743 z"
       id="path3"
       transform="translate(-0.0381814,-0.329179)" /><g
       id="g7"
       transform="translate(-0.0381814,-0.329179)"><path
         style="fill:none;fill-opacity:1;stroke:#000000;stroke-width:0.264583;stroke-opacity:1"
         d="m 8.2894082,11.150617 c 0,0 4.1308778,5.815453 5.8643668,6.961978"
         id="path7" /></g></g><g
     id="layer4"><g
       id="g1"
       transform="translate(-0.0381814,-0.329179)"><path
         style="display:inline;fill:none;fill-opacity:1;stroke:#000000;stroke-width:0.264583;stroke-opacity:1"
         d="m 21.596901,33.523995 v 3.820189"
         id="path4" /><path
         style="fill:none;fill-opacity:1;stroke:#000000;stroke-width:0.264583;stroke-opacity:1"
         d="M 21.617302,35.491606 H 19.859356"
         id="path5" /><path
         style="fill:none;fill-opacity:1;stroke:#000000;stroke-width:0.264583;stroke-opacity:1"
         d="m 20.054766,37.061392 1.598976,-1.598975"
         id="path6" /></g></g><g
     id="layer5"><g
       id="g2"
       transform="translate(-0.0381814,-0.329179)"><path
         style="fill:none;fill-opacity:1;stroke:#000000;stroke-width:0.264583;stroke-opacity:1"
         d="m 24.803821,33.568354 v 3.820189"
         id="path4-5" /><path
         style="fill:none;fill-opacity:1;stroke:#000000;stroke-width:0.264583;stroke-opacity:1"
         d="M 24.824222,35.535965 H 23.066276"
         id="path5-3" /><path
         style="fill:none;fill-opacity:1;stroke:#000000;stroke-width:0.264583;stroke-opacity:1"
         d="m 23.261686,37.105751 1.598976,-1.598975"
         id="path6-5" /></g></g></svg>
