<?xml version="1.0" encoding="UTF-8" standalone="no"?>
<!-- Created with Inkscape (http://www.inkscape.org/) -->

<svg
   width="50mm"
   height="50mm"
   viewBox="0 0 50 50"
   version="1.1"
   id="svg5"
   inkscape:version="1.1.2 (0a00cf5339, 2022-02-04)"
   sodipodi:docname="drawing.svg"
   xmlns:inkscape="http://www.inkscape.org/namespaces/inkscape"
   xmlns:sodipodi="http://sodipodi.sourceforge.net/DTD/sodipodi-0.dtd"
   xmlns="http://www.w3.org/2000/svg"
   xmlns:svg="http://www.w3.org/2000/svg">
  <sodipodi:namedview
     id="namedview7"
     pagecolor="#505050"
     bordercolor="#ffffff"
     borderopacity="1"
     inkscape:pageshadow="0"
     inkscape:pageopacity="0"
     inkscape:pagecheckerboard="1"
     inkscape:document-units="mm"
     showgrid="false"
     inkscape:zoom="3.6605408"
     inkscape:cx="69.252063"
     inkscape:cy="107.90755"
     inkscape:window-width="1920"
     inkscape:window-height="1011"
     inkscape:window-x="0"
     inkscape:window-y="0"
     inkscape:window-maximized="1"
     inkscape:current-layer="layer2" />
  <defs
     id="defs2">
    <inkscape:perspective
       sodipodi:type="inkscape:persp3d"
       inkscape:vp_x="0 : 25 : 1"
       inkscape:vp_y="0 : 1000 : 0"
       inkscape:vp_z="50 : 25 : 1"
       inkscape:persp3d-origin="25 : 16.666667 : 1"
       id="perspective4150" />
  </defs>
  <g
     inkscape:groupmode="layer"
     id="layer2"
     inkscape:label="Layer 2"
     style="display:inline">
    <path
       style="fill:none;stroke:#000000;stroke-width:0.264583px;stroke-linecap:butt;stroke-linejoin:miter;stroke-opacity:1"
       d="m 28.889706,44.547371 c 1.517806,-0.316621 3.104078,-0.265234 3.686058,-0.472686 0.58198,-0.207452 1.031542,-0.02873 0.230463,-1.4132 -0.801076,-1.384469 -1.641049,-6.256864 -2.184207,-7.195585 -0.543158,-0.93872 -2.081432,-3.615192 -2.179616,-5.656886 -0.09819,-2.041695 -0.235056,-2.985871 0.160425,-3.135043 0.395483,-0.149172 0.779195,-0.02318 1.022617,-0.670303 0.243424,-0.647135 -0.04873,-3.50226 0.149828,-5.014066 0.198557,-1.511806 -0.869617,-5.219466 -0.99286,-5.733048 -0.123242,-0.513583 -0.461065,5.128975 -0.333234,5.9321 0.12783,0.803125 -4.950137,0.586423 -5.603172,1.485054 -0.653034,0.898632 -1.803114,-1.706835 -1.03394,-2.61478 0.769173,-0.907945 2.456212,-3.286716 2.250612,-3.587537 -0.205601,-0.300822 -2.697915,4.86514 -3.78663,5.314983 -1.088715,0.449844 -1.688412,1.26038 -1.923463,1.835513 -0.23505,0.575133 -0.470101,2.162961 -0.739456,2.263616 -0.269356,0.100655 -0.321801,-0.25672 -0.381163,-0.495018 -0.05936,-0.238298 -0.38757,0.03568 -0.143854,0.583321 0.243716,0.547643 0.208508,0.499405 -0.143361,0.791978 -0.351869,0.292571 -1.025116,-0.917268 -0.491064,-1.796414 0.534052,-0.879146 2.097456,-3.526819 3.336802,-5.371367 1.239345,-1.844548 1.766529,-4.971374 2.311119,-6.291664 0.544591,-1.32029 1.860148,-1.918593 2.02906,-2.033577 0.168911,-0.114984 -0.01828,0.09042 0.193969,-0.09649 0.212252,-0.186912 -0.896468,0.707586 -1.678438,0.809777 -0.78197,0.102191 -0.768206,-0.672206 -0.676939,-0.885798 0.09127,-0.213593 0.141454,-0.338953 -0.114137,-0.429303 -0.255591,-0.09035 -0.464671,0.108245 -0.547121,-0.328642 -0.08245,-0.4368869 -0.539581,-0.8940186 -0.539581,-0.8940186 0,0 -0.346756,0.1169522 -0.789469,-0.022394 -0.442713,-0.1393454 0.647517,-0.7349175 0.914915,-1.0102175 0.267398,-0.2752997 -0.419614,-1.7300024 0.342713,-2.3544749 0.762326,-0.6244725 1.047634,-1.0352111 1.287273,-1.0290701 0.239638,0.00614 0.864958,-0.1252898 1.467549,0.2505794 0.602591,0.3758695 1.204947,1.0382623 1.34426,1.8121569 0.139312,0.7738946 0.497535,-0.2078831 0.579767,0.4822344 0.08223,0.6901172 0.455922,1.5538158 0.08223,1.6617304 -0.373689,0.1079148 0.642329,1.523735 1.728716,2.3618 1.086387,0.838065 0.988272,3.175655 1.104668,3.350213 0.116395,0.174559 -0.505254,5.95003 -0.286155,6.935972 0.219099,0.985942 -5.906992,0.06819 -6.351919,1.685522 -0.444928,1.617328 0.349445,5.199558 -0.107104,5.996613 -0.456549,0.797055 -2.419257,11.175423 -3.802457,11.578045 -1.383199,0.402621 -0.657294,0.22997 -1.55204,-0.03699 -0.894745,-0.266957 -2.186324,-0.698516 -1.519994,0.221781 0.66633,0.920298 0.865036,0.923899 2.551676,1.754198 1.68664,0.830297 1.113976,1.756135 1.686637,0.830265 0.572661,-0.925869 0.404112,-1.768006 1.677482,-3.484149 1.27337,-1.716146 1.702529,-5.069332 2.250416,-5.981301 0.547887,-0.911968 1.695355,-3.034387 1.695355,-3.034387 0,0 2.591039,3.363034 3.59985,5.873065 1.008811,2.51003 2.45568,5.003686 1.684319,5.623994 -0.771364,0.620307 -2.565231,0.263003 -2.515113,0.776443 0.05011,0.513443 0.299513,1.053486 1.047705,0.857451 z"
       id="path1984" />
  </g>
</svg>
