<?xml version="1.0" encoding="UTF-8" standalone="no"?>
<!-- Created with Inkscape (http://www.inkscape.org/) -->

<svg
   width="50mm"
   height="50mm"
   viewBox="0 0 50 50"
   version="1.1"
   id="svg5"
   inkscape:version="1.1.2 (0a00cf5339, 2022-02-04)"
   sodipodi:docname="batman.svg"
   xmlns:inkscape="http://www.inkscape.org/namespaces/inkscape"
   xmlns:sodipodi="http://sodipodi.sourceforge.net/DTD/sodipodi-0.dtd"
   xmlns="http://www.w3.org/2000/svg"
   xmlns:svg="http://www.w3.org/2000/svg">
  <sodipodi:namedview
     id="namedview7"
     pagecolor="#505050"
     bordercolor="#ffffff"
     borderopacity="1"
     inkscape:pageshadow="0"
     inkscape:pageopacity="0"
     inkscape:pagecheckerboard="1"
     inkscape:document-units="mm"
     showgrid="false"
     inkscape:zoom="2.8249799"
     inkscape:cx="65.310199"
     inkscape:cy="75.398766"
     inkscape:window-width="1920"
     inkscape:window-height="1011"
     inkscape:window-x="0"
     inkscape:window-y="0"
     inkscape:window-maximized="1"
     inkscape:current-layer="layer2" />
  <defs
     id="defs2">
    <inkscape:perspective
       sodipodi:type="inkscape:persp3d"
       inkscape:vp_x="0 : 25 : 1"
       inkscape:vp_y="0 : 1000 : 0"
       inkscape:vp_z="50 : 25 : 1"
       inkscape:persp3d-origin="25 : 16.666667 : 1"
       id="perspective4150" />
  </defs>
  <g
     inkscape:groupmode="layer"
     id="layer2"
     inkscape:label="Layer 2"
     style="display:inline">
    <path
       style="fill:none;stroke:#010101;stroke-width:1;stroke-opacity:1;stroke-miterlimit:4;stroke-dasharray:none"
       d="m 10.557578,37.150596 c -0.124467,-0.431292 -0.422139,-0.77158 -0.6262422,-1.165969 -0.5308075,-1.025994 -1.0195235,-2.3401 -0.6433236,-3.497907 0.3462346,-1.06558 1.5724848,-1.345529 2.5521318,-1.340807 2.265362,0.0109 4.174753,2.306346 5.188563,4.080834 0.324256,-0.278025 0.422314,-0.731354 0.60164,-1.107671 0.234127,-0.491281 0.592021,-0.963148 1.030717,-1.286996 1.003375,-0.740566 1.950667,-0.426279 2.856625,0.296156 1.354856,1.080329 2.066272,2.617368 2.657011,4.197256 0.207542,0.555118 0.280765,1.457111 0.7243,1.86555 0.75788,-2.020099 1.095078,-4.248325 2.856624,-5.737151 1.34582,-1.137403 2.740903,-1.472852 3.926169,0.0822 0.394389,0.517515 0.593303,1.104581 0.854305,1.690655 h 0.0583 c 1.210509,-1.794368 2.625704,-3.671695 4.897071,-4.066317 1.111227,-0.193085 2.60699,0.196174 2.920578,1.442887 0.435548,1.731347 -0.670899,2.781128 -1.113326,4.314086 1.091231,-0.312072 2.193421,-1.049198 3.148117,-1.650955 3.632694,-2.289555 6.557469,-5.821334 6.131249,-10.30023 -0.05742,-0.603505 -0.07672,-1.16457 -0.273186,-1.748953 -1.156525,-3.439668 -4.197315,-5.863601 -7.257226,-7.570662 -1.728841,-0.964472 -3.582266,-1.693109 -5.480056,-2.248222 -0.585083,-0.171141 -1.434083,-0.608292 -2.040446,-0.441645 v 0.116597 c 0.54136,0.422372 0.814138,1.151091 1.122712,1.748953 0.953238,1.846779 1.615625,4.217253 0.750243,6.237936 -0.621753,1.451981 -2.3682,3.221514 -4.088296,2.391344 C 29.218275,22.441137 28.998314,20.11876 28.795144,18.087 28.694055,17.075872 28.53146,16.069115 28.460453,15.05548 c -0.04792,-0.683089 -0.03067,-1.441773 -0.238441,-2.098744 l -1.542869,1.772075 -0.847368,0.09347 H 23.907926 L 23.043593,14.762361 21.45939,12.95673 c -0.194075,0.638758 -0.171805,1.377312 -0.242871,2.040446 -0.200547,1.871963 -0.209233,3.897718 -0.723659,5.713249 -0.370137,1.306002 -1.391001,2.715251 -2.82287,2.954216 -0.996554,0.166384 -2.121189,-0.644315 -2.701026,-1.380158 -1.581929,-2.007566 -1.224209,-4.770271 -0.231911,-6.937517 0.327637,-0.715502 0.726982,-1.323176 1.148246,-1.982147 0.133679,-0.209163 0.204628,-0.517492 -0.140266,-0.504579 -0.497927,0.01865 -0.98227,0.24936 -1.456354,0.379121 -1.17722,0.322233 -2.313982,0.69613 -3.439609,1.17483 -4.8317123,2.054846 -10.14393235,5.681418 -10.14393235,11.484797 0,0.722201 0.0225248,1.452681 0.20278479,2.157043 0.68680896,2.683711 2.75281906,4.576604 4.81088306,6.262653 1.3533405,1.108779 3.1369236,2.341616 4.8387725,2.831906 z"
       id="path3054" />
  </g>
</svg>
