<?xml version="1.0" encoding="UTF-8" standalone="no"?>
<!-- Created with Inkscape (http://www.inkscape.org/) -->

<svg
   width="50mm"
   height="50mm"
   viewBox="0 0 50 50"
   version="1.1"
   id="svg5"
   inkscape:version="1.1.2 (0a00cf5339, 2022-02-04)"
   sodipodi:docname="prova.svg"
   xmlns:inkscape="http://www.inkscape.org/namespaces/inkscape"
   xmlns:sodipodi="http://sodipodi.sourceforge.net/DTD/sodipodi-0.dtd"
   xmlns="http://www.w3.org/2000/svg"
   xmlns:svg="http://www.w3.org/2000/svg">
  <sodipodi:namedview
     id="namedview7"
     pagecolor="#505050"
     bordercolor="#ffffff"
     borderopacity="1"
     inkscape:pageshadow="0"
     inkscape:pageopacity="0"
     inkscape:pagecheckerboard="1"
     inkscape:document-units="mm"
     showgrid="false"
     inkscape:zoom="3.7830961"
     inkscape:cx="81.282629"
     inkscape:cy="58.153425"
     inkscape:window-width="1920"
     inkscape:window-height="1011"
     inkscape:window-x="0"
     inkscape:window-y="0"
     inkscape:window-maximized="1"
     inkscape:current-layer="layer1" />
  <defs
     id="defs2" />
  <g
     inkscape:label="Layer 1"
     inkscape:groupmode="layer"
     id="layer1">
    <path
       style="fill:none;stroke:#000000;stroke-width:0.461834px;stroke-linecap:butt;stroke-linejoin:miter;stroke-opacity:1"
       d="m 1.1146693,23.28217 c 2.094247,-1.211642 3.8539372,-3.268907 5.206487,-5.334725 0.452362,-0.690918 0.5694972,-0.849142 0.8675166,-1.573288 0.025522,-0.06202 0.069702,-0.253538 0.030077,-0.200531 -0.2123231,0.284026 -3.3052048,12.030198 -3.7254631,13.587479 -0.3538057,1.311041 -0.628609,2.689199 -0.8527106,4.033239 -0.1117514,0.670215 -0.2021658,1.34426 -0.2988884,2.017109 -0.014971,0.104183 -0.1040999,0.38473 -0.030076,0.314557 0.4140115,-0.392437 0.9618105,-2.574327 1.1367939,-3.189825 0.6090244,-2.142222 1.214414,-4.347476 1.6758102,-6.535948 0.6618573,-3.139286 0.9885711,-10.343719 4.9071351,-10.869983 0.30714,-0.04125 0.640843,-0.06797 0.927203,0.05702 0.322713,0.140849 0.39305,1.049874 0.374304,1.244475 -0.173301,1.79895 -0.505404,3.77692 -1.9899672,4.905648 -0.2233213,0.169795 -0.4701813,0.303522 -0.718072,0.429078 -0.1645113,0.08331 -0.5824407,0.288177 -0.538555,0.100263 0.1119891,-0.479526 1.1181491,-0.665502 1.481024,-0.829651 1.2662492,-0.572792 2.0160052,-1.253091 2.8875572,-2.431443 0.756131,-1.022298 0.800346,-3.2265 2.438301,-3.075308 0.394289,0.03639 0.871045,0.215146 1.24182,0.329305 0.02139,0.0066 0.497284,0.146876 0.538554,0.2428 0.2381,0.553432 -1.568818,2.290884 -1.765107,3.161319 -0.34067,1.510694 0.899435,1.394868 1.884941,0.972185 1.30983,-0.561788 3.504564,-1.719251 3.785146,-3.346614 0.03898,-0.226087 0.04581,-0.457249 0.05968,-0.686625 0.0061,-0.0999 0.064,-0.226839 0,-0.300305 -0.01202,-0.01385 -0.511554,0.444813 -0.658388,0.815396 -0.226816,0.572449 -0.857092,2.158595 -0.01474,2.746003 1.454274,1.014205 3.772537,-0.177154 4.532833,-1.645046 0.349119,-0.674042 0.261908,-2.046879 0.08976,-2.674244 -0.308888,-1.125683 -1.696935,-1.212241 -2.543327,-1.001182 -0.53435,0.133256 -1.177077,0.668675 -1.54071,1.02969 -0.129845,0.128903 -0.302566,0.269201 -0.314156,0.457586 -0.02106,0.342324 0.08022,0.694212 0.224397,1.001182 0.08556,0.182164 0.267435,0.299872 0.433988,0.40057 0.562087,0.339837 0.980404,0.492934 1.615665,0.414826 1.349712,-0.165965 4.069371,-1.495192 4.682739,-2.903774 0.09334,-0.214341 0.427904,-1.37939 0.224397,-1.573287 -0.237506,-0.22629 -0.471654,2.289173 -0.493675,2.503202 -0.130456,1.267982 -0.330459,4.408001 1.824791,3.904465 0.363075,-0.08483 0.641473,-0.405581 0.927665,-0.657625 1.738036,-1.530664 1.713091,-4.061323 2.199096,-6.193374 0.04515,-0.198037 -0.09469,0.397614 -0.10456,0.601102 -0.02466,0.508077 1.015763,0.31433 1.121987,0.286053 0.915347,-0.243664 1.56063,-0.772783 2.363809,-1.215968 0.20327,-0.112154 0.766414,-0.14765 0.613508,-0.328812 -0.108591,-0.128651 -0.327956,0.0353 -0.47887,0.09978 -1.23092,0.525968 -1.902374,2.29157 -2.543326,3.332852 -0.425015,0.69047 -1.016726,1.276734 -1.33158,2.030872 -0.165765,0.397046 -0.128321,0.873308 -0.05968,1.301488 0.02315,0.144429 0.178748,0.313906 0.314157,0.286053 0.628165,-0.129209 4.547571,-1.439555 5.101458,-2.030872 0.433672,-0.462976 0.717508,-1.061034 1.062303,-1.601794 0.159924,-0.250818 0.564272,-1.051649 0.403917,-0.801143 -0.264792,0.413657 -0.521897,0.834268 -0.748147,1.272981 -2.369538,4.594682 4.97527,2.610145 3.844831,-0.372065 -0.203432,-0.53667 -0.266666,-1.235349 -0.71807,-1.559033 -1.001589,-0.718197 -2.853485,1.12431 -3.141566,1.816578 -0.339217,0.815148 0.113773,2.460909 0.89759,2.846269 0.849428,0.417614 1.846732,0.38057 2.782529,0.400571 0.923161,0.01973 7.042016,-1.792192 6.567679,-3.303854"
       id="path1156" />
  </g>
</svg>
