{
	"asset":{
		"generator":"Khronos glTF Blender I/O v3.5.30",
		"version":"2.0"
	},
	"scene":0,
	"scenes":[
		{
			"name":"Scene",
			"nodes":[
				0
			]
		}
	],
	"nodes":[
		{
			"mesh":0,
			"name":"controller"
		}
	],
	"meshes":[
		{
			"name":"Cube.002",
			"primitives":[
				{
					"attributes":{
						"POSITION":0,
						"TEXCOORD_0":1,
						"NORMAL":2
					},
					"indices":3
				}
			]
		}
	],
	"accessors":[
		{
			"bufferView":0,
			"componentType":5126,
			"count":482,
			"max":[
				0.48842862248420715,
				0.20457293093204498,
				0.494000107049942
			],
			"min":[
				-0.48842862248420715,
				-0.12511439621448517,
				-0.4456629157066345
			],
			"type":"VEC3"
		},
		{
			"bufferView":1,
			"componentType":5126,
			"count":482,
			"type":"VEC2"
		},
		{
			"bufferView":2,
			"componentType":5126,
			"count":482,
			"type":"VEC3"
		},
		{
			"bufferView":3,
			"componentType":5123,
			"count":852,
			"type":"SCALAR"
		}
	],
	"bufferViews":[
		{
			"buffer":0,
			"byteLength":5784,
			"byteOffset":0,
			"target":34962
		},
		{
			"buffer":0,
			"byteLength":3856,
			"byteOffset":5784,
			"target":34962
		},
		{
			"buffer":0,
			"byteLength":5784,
			"byteOffset":9640,
			"target":34962
		},
		{
			"buffer":0,
			"byteLength":1704,
			"byteOffset":15424,
			"target":34963
		}
	],
	"buffers":[
		{
			"byteLength":17128,
			"uri":"data:application/octet-stream;base64,"
		}
	]
}
