{
	"asset":{
		"generator":"Khronos glTF Blender I/O v3.5.30",
		"version":"2.0"
	},
	"scene":0,
	"scenes":[
		{
			"name":"Scene",
			"nodes":[
				0
			]
		}
	],
	"nodes":[
		{
			"mesh":0,
			"name":"leica",
			"scale":[
				1.0863590240478516,
				1.100000023841858,
				1.100000023841858
			]
		}
	],
	"meshes":[
		{
			"name":"Plane",
			"primitives":[
				{
					"attributes":{
						"POSITION":0,
						"TEXCOORD_0":1,
						"NORMAL":2
					},
					"indices":3
				}
			]
		}
	],
	"accessors":[
		{
			"bufferView":0,
			"componentType":5126,
			"count":798,
			"max":[
				0.9184809923171997,
				0.5755569934844971,
				0.7143800258636475
			],
			"min":[
				-0.9189205169677734,
				-0.39441660046577454,
				-0.19469231367111206
			],
			"type":"VEC3"
		},
		{
			"bufferView":1,
			"componentType":5126,
			"count":798,
			"type":"VEC2"
		},
		{
			"bufferView":2,
			"componentType":5126,
			"count":798,
			"type":"VEC3"
		},
		{
			"bufferView":3,
			"componentType":5123,
			"count":1560,
			"type":"SCALAR"
		}
	],
	"bufferViews":[
		{
			"buffer":0,
			"byteLength":9576,
			"byteOffset":0,
			"target":34962
		},
		{
			"buffer":0,
			"byteLength":6384,
			"byteOffset":9576,
			"target":34962
		},
		{
			"buffer":0,
			"byteLength":9576,
			"byteOffset":15960,
			"target":34962
		},
		{
			"buffer":0,
			"byteLength":3120,
			"byteOffset":25536,
			"target":34963
		}
	],
	"buffers":[
		{
			"byteLength":28656,
			"uri":"data:application/octet-stream;base64,"
		}
	]
}
