{
	"asset":{
		"generator":"Khronos glTF Blender I/O v3.5.30",
		"version":"2.0"
	},
	"scene":0,
	"scenes":[
		{
			"name":"Scene",
			"nodes":[
				0
			]
		}
	],
	"nodes":[
		{
			"mesh":0,
			"name":"microscope"
		}
	],
	"meshes":[
		{
			"name":"Cube.003",
			"primitives":[
				{
					"attributes":{
						"POSITION":0,
						"TEXCOORD_0":1,
						"NORMAL":2
					},
					"indices":3
				}
			]
		}
	],
	"accessors":[
		{
			"bufferView":0,
			"componentType":5126,
			"count":393,
			"max":[
				0.5187499523162842,
				1.3610029220581055,
				0.5188295245170593
			],
			"min":[
				-0.5187500715255737,
				-0.6400001049041748,
				-0.6431707143783569
			],
			"type":"VEC3"
		},
		{
			"bufferView":1,
			"componentType":5126,
			"count":393,
			"type":"VEC2"
		},
		{
			"bufferView":2,
			"componentType":5126,
			"count":393,
			"type":"VEC3"
		},
		{
			"bufferView":3,
			"componentType":5123,
			"count":777,
			"type":"SCALAR"
		}
	],
	"bufferViews":[
		{
			"buffer":0,
			"byteLength":4716,
			"byteOffset":0,
			"target":34962
		},
		{
			"buffer":0,
			"byteLength":3144,
			"byteOffset":4716,
			"target":34962
		},
		{
			"buffer":0,
			"byteLength":4716,
			"byteOffset":7860,
			"target":34962
		},
		{
			"buffer":0,
			"byteLength":1554,
			"byteOffset":12576,
			"target":34963
		}
	],
	"buffers":[
		{
			"byteLength":14132,
			"uri":"data:application/octet-stream;base64,"
		}
	]
}
