{
	"asset":{
		"generator":"Khronos glTF Blender I/O v3.5.30",
		"version":"2.0"
	},
	"scene":0,
	"scenes":[
		{
			"name":"Scene",
			"nodes":[
				0
			]
		}
	],
	"nodes":[
		{
			"mesh":0,
			"name":"teapot"
		}
	],
	"materials":[
		{
			"doubleSided":true,
			"name":"Material.001",
			"pbrMetallicRoughness":{
				"baseColorFactor":[
					0.800000011920929,
					0.800000011920929,
					0.800000011920929,
					1
				],
				"metallicFactor":0,
				"roughnessFactor":0.5
			}
		}
	],
	"meshes":[
		{
			"name":"Cylinder.001",
			"primitives":[
				{
					"attributes":{
						"POSITION":0,
						"TEXCOORD_0":1,
						"NORMAL":2
					},
					"indices":3,
					"material":0
				}
			]
		}
	],
	"accessors":[
		{
			"bufferView":0,
			"componentType":5126,
			"count":1568,
			"max":[
				1.05353581905365,
				0.5,
				0.5999314785003662
			],
			"min":[
				-0.8844901323318481,
				-0.5,
				-0.5999314785003662
			],
			"type":"VEC3"
		},
		{
			"bufferView":1,
			"componentType":5126,
			"count":1568,
			"type":"VEC2"
		},
		{
			"bufferView":2,
			"componentType":5126,
			"count":1568,
			"type":"VEC3"
		},
		{
			"bufferView":3,
			"componentType":5123,
			"count":2412,
			"type":"SCALAR"
		}
	],
	"bufferViews":[
		{
			"buffer":0,
			"byteLength":18816,
			"byteOffset":0,
			"target":34962
		},
		{
			"buffer":0,
			"byteLength":12544,
			"byteOffset":18816,
			"target":34962
		},
		{
			"buffer":0,
			"byteLength":18816,
			"byteOffset":31360,
			"target":34962
		},
		{
			"buffer":0,
			"byteLength":4824,
			"byteOffset":50176,
			"target":34963
		}
	],
	"buffers":[
		{
			"byteLength":55000,
			"uri":"data:application/octet-stream;base64,"
		}
	]
}
