{
	"asset":{
		"generator":"Khronos glTF Blender I/O v3.5.30",
		"version":"2.0"
	},
	"scene":0,
	"scenes":[
		{
			"name":"Scene",
			"nodes":[
				0
			]
		}
	],
	"nodes":[
		{
			"mesh":0,
			"name":"typewriter"
		}
	],
	"meshes":[
		{
			"name":"Cube.004",
			"primitives":[
				{
					"attributes":{
						"POSITION":0,
						"TEXCOORD_0":1,
						"NORMAL":2
					},
					"indices":3
				}
			]
		}
	],
	"accessors":[
		{
			"bufferView":0,
			"componentType":5126,
			"count":900,
			"max":[
				0.7577432990074158,
				0.40629842877388,
				0.9991096258163452
			],
			"min":[
				-0.7640149593353271,
				-0.34172523021698,
				-1.00150465965271
			],
			"type":"VEC3"
		},
		{
			"bufferView":1,
			"componentType":5126,
			"count":900,
			"type":"VEC2"
		},
		{
			"bufferView":2,
			"componentType":5126,
			"count":900,
			"type":"VEC3"
		},
		{
			"bufferView":3,
			"componentType":5123,
			"count":1452,
			"type":"SCALAR"
		}
	],
	"bufferViews":[
		{
			"buffer":0,
			"byteLength":10800,
			"byteOffset":0,
			"target":34962
		},
		{
			"buffer":0,
			"byteLength":7200,
			"byteOffset":10800,
			"target":34962
		},
		{
			"buffer":0,
			"byteLength":10800,
			"byteOffset":18000,
			"target":34962
		},
		{
			"buffer":0,
			"byteLength":2904,
			"byteOffset":28800,
			"target":34963
		}
	],
	"buffers":[
		{
			"byteLength":31704,
			"uri":"data:application/octet-stream;base64,"
		}
	]
}
