{
	"asset":{
		"generator":"Khronos glTF Blender I/O v3.5.30",
		"version":"2.0"
	},
	"scene":0,
	"scenes":[
		{
			"name":"Scene",
			"nodes":[
				0
			]
		}
	],
	"nodes":[
		{
			"mesh":0,
			"name":"teapot",
			"scale":[
				0.42499998211860657,
				0.9207130074501038,
				0.42499998211860657
			]
		}
	],
	"meshes":[
		{
			"name":"Cylinder.001",
			"primitives":[
				{
					"attributes":{
						"POSITION":0,
						"TEXCOORD_0":1,
						"NORMAL":2
					},
					"indices":3
				}
			]
		}
	],
	"accessors":[
		{
			"bufferView":0,
			"componentType":5126,
			"count":1574,
			"max":[
				4.957815647125244,
				2.172229528427124,
				2.823207139968872
			],
			"min":[
				-4.162306785583496,
				0,
				-2.823207139968872
			],
			"type":"VEC3"
		},
		{
			"bufferView":1,
			"componentType":5126,
			"count":1574,
			"type":"VEC2"
		},
		{
			"bufferView":2,
			"componentType":5126,
			"count":1574,
			"type":"VEC3"
		},
		{
			"bufferView":3,
			"componentType":5123,
			"count":2412,
			"type":"SCALAR"
		}
	],
	"bufferViews":[
		{
			"buffer":0,
			"byteLength":18888,
			"byteOffset":0,
			"target":34962
		},
		{
			"buffer":0,
			"byteLength":12592,
			"byteOffset":18888,
			"target":34962
		},
		{
			"buffer":0,
			"byteLength":18888,
			"byteOffset":31480,
			"target":34962
		},
		{
			"buffer":0,
			"byteLength":4824,
			"byteOffset":50368,
			"target":34963
		}
	],
	"buffers":[
		{
			"byteLength":55192,
			"uri":"data:application/octet-stream;base64,"
		}
	]
}
