<?xml version="1.0" encoding="UTF-8" standalone="no"?>
<svg
   viewBox="0 0 4000 1080"
   width="4000"
   height="1080"
   version="1.1"
   id="svg2382"
   xmlns="http://www.w3.org/2000/svg"
   xmlns:svg="http://www.w3.org/2000/svg">
  <desc
     id="desc2266">hasher_logo.dxf - scale = 1.0, origin = (0.0, 0.0), method = manual</desc>
  <defs
     id="defs2280">
    <marker
       id="DistanceX"
       orient="auto"
       refX="0"
       refY="0"
       style="overflow:visible">
      <path
         d="M 3,-3 -3,3 M 0,-5 V 5"
         style="stroke:#000000;stroke-width:0.5"
         id="path2268" />
    </marker>
    <pattern
       id="Hatch"
       patternUnits="userSpaceOnUse"
       width="8"
       height="8"
       x="0"
       y="0">
      <path
         d="M8 4 l-4,4"
         stroke="#000000"
         stroke-width="0.25"
         linecap="square"
         id="path2271" />
      <path
         d="M6 2 l-4,4"
         stroke="#000000"
         stroke-width="0.25"
         linecap="square"
         id="path2273" />
      <path
         d="M4 0 l-4,4"
         stroke="#000000"
         stroke-width="0.25"
         linecap="square"
         id="path2275" />
    </pattern>
    <symbol
       id="*Model_Space" />
    <symbol
       id="*Paper_Space" />
  </defs>
  <g
     id="layer1"
     style="display:inline">
    <path
       style="fill:#7d32ff;fill-opacity:1;stroke:none;stroke-width:1px;stroke-linecap:butt;stroke-linejoin:miter;stroke-opacity:1"
       d="M 949.29001,441.49076 977.42814,681.93735 240.70734,988.88969 199.77773,717.74611 Z"
       id="path2669" />
    <path
       style="fill:#7d32ff;fill-opacity:1;stroke:none;stroke-width:1px;stroke-linecap:butt;stroke-linejoin:miter;stroke-opacity:1"
       d="M 880.22227,362.19239 130.70999,638.44774 102.57186,398.00379 839.29266,91.051443 Z"
       id="path2634" />
  </g>
  <g
     id="layer2">
    <path
       style="fill:#32ff96;fill-opacity:1;stroke:none;stroke-width:1px;stroke-linecap:butt;stroke-linejoin:miter;stroke-opacity:1"
       d="M 240.70734,190.81096 473.49038,124.3052 506.74519,922.38394 240.70734,988.88969 Z"
       id="path3034" />
    <path
       style="fill:#32ff96;fill-opacity:1;stroke:none;stroke-width:1px;stroke-linecap:butt;stroke-linejoin:miter;stroke-opacity:1"
       d="M 573.25481,157.55808 839.29266,91.051443 V 889.12666 l -232.78304,66.50575 z"
       id="path3069" />
    <g
       aria-label="Hasher"
       id="text7016"
       style="font-weight:bold;font-size:769.131px;line-height:1.25;font-family:'Min Sans';-inkscape-font-specification:'Min Sans Bold';stroke-width:15.3827">
      <path
         d="m 1178.5546,259.46231 h 109.6613 v 226.08245 h 251.62 V 259.46231 h 110.4123 v 552.8129 H 1539.8359 V 578.68172 h -251.62 v 233.59349 h -109.6613 z"
         style="fill:#333333"
         id="path13714" />
      <path
         d="m 1896.6105,820.53736 q -45.8174,0 -81.1193,-17.27541 -34.5508,-18.0265 -54.0795,-48.07068 -19.5287,-30.79529 -19.5287,-68.35051 0,-42.81295 21.782,-68.35051 21.782,-26.28865 73.6082,-38.30632 51.8262,-12.76878 142.7099,-12.76878 h 34.5508 v -24.03534 q 0,-37.55523 -19.5287,-54.07953 -18.7776,-16.52429 -61.5906,-16.52429 -76.6126,0 -145.7143,42.81295 l -30.7952,-76.61266 q 32.2975,-22.53313 83.3726,-36.05301 51.0751,-13.51988 98.3946,-13.51988 90.1326,0 135.1988,40.55964 45.0663,39.80854 45.0663,125.43445 V 812.27521 H 2015.285 v -61.59057 q -15.0221,33.0486 -45.8174,51.82621 -30.0442,18.02651 -72.8571,18.02651 z m -48.0707,-135.94991 q 0,27.03976 18.7776,42.81295 18.7776,15.7732 52.5773,15.7732 41.3108,0 67.5994,-24.78645 27.0398,-24.78645 27.0398,-66.8483 V 626.0013 h -33.7997 q -51.0751,0 -80.3682,6.75994 -28.542,6.00883 -40.5596,18.77761 -11.2666,12.01767 -11.2666,33.0486 z"
         style="fill:#333333"
         id="path13716" />
      <path
         d="m 2380.3218,820.53736 q -55.5817,0 -102.1502,-12.76878 -46.5685,-12.76878 -75.8615,-35.30191 l 29.293,-72.10603 q 30.7953,19.52872 70.6038,31.54639 40.5597,11.26657 80.3682,11.26657 36.053,0 54.8307,-12.76878 19.5287,-12.76878 19.5287,-36.05301 0,-17.27541 -12.0177,-27.79087 -12.0177,-11.26657 -37.5552,-16.5243 l -84.8748,-15.02209 q -54.0796,-9.76436 -81.8704,-38.30633 -27.7909,-29.29307 -27.7909,-74.35934 0,-37.55522 21.782,-67.5994 21.7821,-30.79529 62.3417,-48.07069 40.5597,-17.2754 94.6392,-17.2754 48.8218,0 89.3814,12.76877 40.5597,12.01768 67.5994,35.30191 l -31.5464,70.60383 q -27.0397,-19.52872 -60.8394,-30.04418 -33.0486,-11.26657 -66.0972,-11.26657 -38.3064,0 -57.8351,13.51988 -19.5287,13.51988 -19.5287,37.55522 0,33.79971 48.0707,44.31517 l 84.1237,14.27098 q 113.4168,21.78203 113.4168,111.16346 0,61.59057 -49.5729,97.64359 -48.8218,35.30191 -128.4389,35.30191 z"
         style="fill:#333333"
         id="path13718" />
      <path
         d="m 2639.4528,259.46231 h 110.4124 l 0.7511,198.29159 q 21.0309,-33.0486 55.5817,-50.324 35.3019,-18.02651 78.866,-18.02651 73.6082,0 109.6612,41.31074 36.8041,41.31075 36.8041,128.43887 V 812.27521 H 2921.117 V 564.41073 q 0,-47.31958 -18.0265,-67.5994 -18.0265,-21.03093 -54.8306,-21.03093 -44.3152,0 -71.355,28.54197 -27.0397,27.79087 -27.0397,72.85714 v 235.0957 h -110.4124 z"
         style="fill:#333333"
         id="path13720" />
      <path
         d="m 3346.2422,820.53736 q -70.6039,0 -123.1812,-25.53756 -51.8262,-25.53755 -80.3682,-73.60823 -27.7908,-48.82179 -27.7908,-115.67009 0,-63.84388 26.2886,-112.66567 27.0398,-48.82179 74.3594,-75.86156 48.0707,-27.79086 109.6612,-27.79086 59.3373,0 102.1502,25.53755 43.5641,25.53755 66.8483,72.85713 23.2843,47.31959 23.2843,111.16347 v 28.54197 h -295.1841 q 5.2577,55.58173 36.053,82.62149 31.5464,26.28866 91.6348,26.28866 36.8041,0 70.6038,-10.51547 33.7997,-10.51546 58.5861,-31.54638 l 33.0486,72.10602 q -28.5419,25.53756 -73.6082,39.80854 -44.3152,14.27099 -92.3858,14.27099 z m 77.3637,-250.8689 q -5.2577,-103.65242 -94.6391,-103.65242 -45.8174,0 -73.6083,26.28866 -27.0397,26.28866 -32.2975,77.36376 z"
         style="fill:#333333"
         id="path13722" />
      <path
         d="m 3597.111,397.66554 h 108.1591 v 69.85271 q 30.7952,-70.60382 129.941,-77.36376 l 33.0486,-3.00441 6.76,93.13695 -60.8395,6.00884 q -53.3284,5.25773 -79.6171,30.04417 -25.5375,24.03535 -25.5375,69.85272 V 812.27521 H 3597.111 Z"
         style="fill:#333333"
         id="path13724" />
    </g>
  </g>
</svg>
