<?xml version="1.0" encoding="UTF-8" standalone="no"?>
<!-- Created with Inkscape (http://www.inkscape.org/) -->

<svg
   width="50mm"
   height="50mm"
   viewBox="0 0 50 50"
   version="1.1"
   id="svg5"
   inkscape:version="1.1.2 (0a00cf5339, 2022-02-04)"
   sodipodi:docname="drawing.svg"
   xmlns:inkscape="http://www.inkscape.org/namespaces/inkscape"
   xmlns:sodipodi="http://sodipodi.sourceforge.net/DTD/sodipodi-0.dtd"
   xmlns="http://www.w3.org/2000/svg"
   xmlns:svg="http://www.w3.org/2000/svg">
  <sodipodi:namedview
     id="namedview7"
     pagecolor="#505050"
     bordercolor="#ffffff"
     borderopacity="1"
     inkscape:pageshadow="0"
     inkscape:pageopacity="0"
     inkscape:pagecheckerboard="1"
     inkscape:document-units="mm"
     showgrid="false"
     inkscape:zoom="3.6605408"
     inkscape:cx="69.252063"
     inkscape:cy="107.90755"
     inkscape:window-width="1920"
     inkscape:window-height="1011"
     inkscape:window-x="0"
     inkscape:window-y="0"
     inkscape:window-maximized="1"
     inkscape:current-layer="layer2" />
  <defs
     id="defs2">
    <inkscape:perspective
       sodipodi:type="inkscape:persp3d"
       inkscape:vp_x="0 : 25 : 1"
       inkscape:vp_y="0 : 1000 : 0"
       inkscape:vp_z="50 : 25 : 1"
       inkscape:persp3d-origin="25 : 16.666667 : 1"
       id="perspective4150" />
  </defs>
  <g
     inkscape:label="Layer 1"
     inkscape:groupmode="layer"
     id="layer1"
     style="display:none">
    <path
       style="fill:#000000;stroke-width:0.0305124"
       d="m 28.889705,44.547372 c -0.06377,-0.03889 -0.186049,-0.06308 -0.396661,-0.07849 -0.217646,-0.01592 -0.32061,-0.03683 -0.361055,-0.07333 -0.03112,-0.02808 -0.113397,-0.0648 -0.18284,-0.08159 -0.103534,-0.02504 -0.144152,-0.05793 -0.22566,-0.182745 -0.116676,-0.178669 -0.128697,-0.315257 -0.0352,-0.399908 0.04992,-0.04519 0.129675,-0.06223 0.358521,-0.07656 0.448733,-0.0281 1.245102,-0.219017 1.558011,-0.373502 0.141232,-0.06973 0.259758,-0.148067 0.263391,-0.174094 0.009,-0.0643 -0.04561,-0.129031 -0.146401,-0.173616 -0.04615,-0.02041 -0.08391,-0.05114 -0.08391,-0.06828 0,-0.01714 -0.0206,-0.03117 -0.04577,-0.03117 -0.02517,0 -0.04577,-0.01077 -0.04577,-0.02393 0,-0.01316 -0.04462,-0.04956 -0.09916,-0.08088 -0.05454,-0.03132 -0.156201,-0.102772 -0.225911,-0.15878 -0.06971,-0.05601 -0.15896,-0.115697 -0.198331,-0.132635 -0.08889,-0.03824 -0.166392,-0.0892 -0.255915,-0.168251 -0.03801,-0.03356 -0.121284,-0.08849 -0.185055,-0.12205 -0.06377,-0.03356 -0.149016,-0.09148 -0.189435,-0.128701 -0.04042,-0.03722 -0.09942,-0.07591 -0.13111,-0.08596 -0.03169,-0.01006 -0.05762,-0.0311 -0.05762,-0.04675 0,-0.01565 -0.02746,-0.02846 -0.06102,-0.02846 -0.03356,0 -0.06103,-0.01095 -0.06103,-0.02435 0,-0.01339 -0.08238,-0.07683 -0.183074,-0.140974 -0.100691,-0.06415 -0.183074,-0.126507 -0.183074,-0.138578 0,-0.01207 -0.03461,-0.03771 -0.07691,-0.05698 -0.0423,-0.01927 -0.166585,-0.103775 -0.276195,-0.187785 -0.10961,-0.08401 -0.231912,-0.160938 -0.271781,-0.170943 -0.03987,-0.01001 -0.07975,-0.03712 -0.08863,-0.06024 -0.0089,-0.02313 -0.06136,-0.06281 -0.116629,-0.08817 -0.05527,-0.02537 -0.124522,-0.06013 -0.15389,-0.07725 -0.128109,-0.07468 -0.170072,-0.09729 -0.341043,-0.183758 -0.09947,-0.05031 -0.199016,-0.09147 -0.221215,-0.09147 -0.0222,0 -0.04036,-0.01398 -0.04036,-0.03106 0,-0.01709 -0.106411,-0.08122 -0.236471,-0.142526 -0.130059,-0.06131 -0.243336,-0.120378 -0.251727,-0.131277 -0.0084,-0.0109 -0.171653,-0.09868 -0.362804,-0.195078 -0.191152,-0.09639 -0.400281,-0.225868 -0.464731,-0.287716 -0.302098,-0.289908 -0.58754,-0.512813 -0.786948,-0.614544 -0.06748,-0.03442 -0.137268,-0.08984 -0.155096,-0.123154 -0.01783,-0.03331 -0.06634,-0.06908 -0.107813,-0.07949 -0.04147,-0.01041 -0.0754,-0.03803 -0.0754,-0.06139 0,-0.02807 -0.03568,-0.04246 -0.105277,-0.04246 -0.0579,0 -0.116257,-0.01745 -0.129678,-0.03878 -0.07382,-0.117339 -0.527841,-0.131317 -0.598347,-0.01842 -0.01965,0.03146 -0.05874,0.0572 -0.08687,0.0572 -0.02813,0 -0.05572,0.0103 -0.06131,0.02288 -0.0056,0.01259 -0.05116,0.04389 -0.101266,0.06958 -0.0501,0.02568 -0.105025,0.07399 -0.12205,0.107357 -0.01702,0.03337 -0.06185,0.09474 -0.09961,0.136385 -0.113628,0.125317 -0.16019,0.181866 -0.16019,0.194538 0,0.0066 -0.03856,0.0533 -0.08568,0.103751 -0.04712,0.05044 -0.119209,0.135466 -0.16019,0.188936 -0.04098,0.05347 -0.09167,0.115645 -0.112652,0.138169 -0.02098,0.02253 -0.03814,0.05498 -0.03814,0.07213 0,0.01714 -0.01728,0.04216 -0.0384,0.05558 -0.02112,0.01342 -0.0641,0.09764 -0.09552,0.187153 -0.04916,0.140052 -0.05426,0.21453 -0.03659,0.533967 0.01661,0.300383 0.01096,0.403234 -0.02964,0.539032 -0.02759,0.0923 -0.0654,0.186446 -0.08401,0.209215 -0.038,0.04649 -0.06801,0.09577 -0.162757,0.267218 -0.03603,0.06521 -0.108119,0.156425 -0.16019,0.202703 -0.05207,0.04628 -0.09468,0.09524 -0.09468,0.108804 0,0.01356 -0.05221,0.054 -0.116021,0.08987 -0.06381,0.03586 -0.141458,0.09332 -0.172548,0.127667 -0.03109,0.03435 -0.06966,0.06246 -0.0857,0.06246 -0.04213,0 -0.311933,0.227409 -0.535542,0.451397 l -0.192772,0.193098 -0.02671,0.24986 c -0.03529,0.329997 -0.05997,0.447424 -0.113823,0.541546 -0.05335,0.09324 -0.335027,0.305472 -0.465663,0.350859 -0.05113,0.01776 -0.08232,0.0435 -0.06932,0.05719 0.013,0.01369 -0.0064,0.01567 -0.0431,0.0044 -0.03675,-0.01129 -0.0938,-0.0036 -0.126962,0.01711 -0.04703,0.02937 -0.08665,0.02969 -0.180895,0.0015 -0.152013,-0.04555 -0.225114,-0.04813 -0.159366,-0.0056 0.06663,0.04306 0.01362,0.03702 -0.103105,-0.01175 -0.05563,-0.02325 -0.200483,-0.06486 -0.321897,-0.09247 -0.121414,-0.02762 -0.250523,-0.06867 -0.286908,-0.09123 -0.03639,-0.02256 -0.134808,-0.05736 -0.218717,-0.07734 -0.08391,-0.01997 -0.184647,-0.05711 -0.223863,-0.08253 -0.03921,-0.02542 -0.07908,-0.03844 -0.08859,-0.02893 -0.0095,0.0095 -0.05981,-0.0085 -0.111774,-0.04004 -0.05197,-0.03153 -0.138951,-0.06673 -0.193299,-0.07823 -0.217071,-0.0459 -0.135748,-0.160684 0.183962,-0.259654 0.120987,-0.03745 0.251258,-0.08782 0.289492,-0.111919 0.03823,-0.0241 0.08629,-0.03523 0.106793,-0.02473 0.0205,0.0105 -0.01078,-0.02265 -0.06951,-0.07366 -0.210859,-0.183141 -0.302378,-0.22058 -1.312033,-0.536722 -0.512291,-0.16041 -0.654608,-0.249378 -0.876137,-0.547725 -0.112535,-0.151558 -0.193705,-0.223073 -0.353901,-0.311812 -0.237921,-0.131795 -0.36745,-0.285697 -0.434627,-0.516404 -0.03814,-0.13099 -0.03876,-0.17245 -0.0041,-0.274611 0.06611,-0.194801 0.340402,-0.293157 0.501964,-0.179996 0.05043,0.03532 0.0822,0.03914 0.126833,0.01526 0.106351,-0.05692 0.219171,-0.03552 0.331169,0.06282 0.100531,0.08827 0.109855,0.09085 0.137499,0.03814 0.08995,-0.171535 0.213493,-0.171541 0.420034,-2.5e-5 0.153525,0.12749 0.163369,0.131087 0.246004,0.08986 0.09477,-0.04728 0.155954,-0.02825 0.252595,0.07854 0.04673,0.05164 0.08014,0.05955 0.18854,0.04469 0.127455,-0.01747 0.137613,-0.01246 0.311774,0.15366 0.106539,0.101618 0.207324,0.171715 0.2469,0.171715 0.276752,0 1.014775,-0.635741 1.337618,-1.15224 0.283151,-0.452996 0.525625,-0.937582 0.660124,-1.319264 0.426823,-1.211242 0.533181,-1.535637 0.630251,-1.922281 0.03581,-0.142645 0.107275,-0.403526 0.158805,-0.579735 0.05153,-0.176209 0.119474,-0.457686 0.150986,-0.625504 0.03151,-0.167819 0.07777,-0.394373 0.102783,-0.503455 0.02502,-0.109082 0.05946,-0.31504 0.07653,-0.457686 0.01708,-0.142645 0.05171,-0.363302 0.07697,-0.490349 0.03459,-0.174012 0.04382,-0.400289 0.0374,-0.917294 l -0.0085,-0.686303 0.157104,-0.318455 c 0.08641,-0.175153 0.192215,-0.446763 0.235125,-0.603578 0.04291,-0.156815 0.09132,-0.301139 0.107565,-0.320719 0.01625,-0.01958 0.0776,-0.193348 0.13634,-0.386152 0.190061,-0.623873 0.421413,-1.265077 0.541093,-1.49967 0.04193,-0.08219 0.05512,-0.15005 0.04237,-0.218012 -0.01303,-0.06945 0.01838,-0.22053 0.106023,-0.50999 0.06849,-0.226221 0.146789,-0.531987 0.17399,-0.679479 0.04824,-0.261574 0.04782,-0.273688 -0.0172,-0.492695 -0.03666,-0.123491 -0.107155,-0.460223 -0.156655,-0.748294 -0.08462,-0.492473 -0.09,-0.573403 -0.09,-1.354012 0,-0.687534 0.01312,-0.944913 0.07632,-1.497443 L 22.192974,23.57234 21.98715,23.187566 C 21.873941,22.97586 21.749896,22.727194 21.711488,22.634894 21.501674,22.13068 21.31002,21.324983 21.308738,20.941768 l -7.13e-4,-0.213274 -0.0692,0.07597 c -0.03806,0.04178 -0.156898,0.185813 -0.264084,0.320068 -0.330725,0.414248 -1.052497,1.149679 -1.421472,1.448373 -0.134093,0.10855 -0.456628,0.391284 -0.716747,0.628298 -0.526929,0.480126 -0.585842,0.565192 -0.658695,0.951097 -0.07876,0.417202 -0.131955,0.582589 -0.243428,0.756849 -0.08902,0.139161 -0.124164,0.245174 -0.192277,0.580001 -0.07099,0.348988 -0.09641,0.423347 -0.171454,0.50168 -0.09806,0.102352 -0.182039,0.115525 -0.283488,0.04447 -0.05815,-0.04073 -0.06781,-0.07553 -0.06781,-0.244099 0,-0.10813 -0.01338,-0.196601 -0.02973,-0.196601 -0.04972,0 -0.122833,0.173231 -0.122833,0.291047 0,0.09784 0.02712,0.137604 0.228843,0.335432 0.231718,0.227251 0.258367,0.283952 0.196046,0.417135 -0.03718,0.07946 -0.249524,0.25623 -0.407521,0.339249 -0.09799,0.05149 -0.113228,0.05203 -0.207233,0.0074 -0.151483,-0.07188 -0.493059,-0.421484 -0.606167,-0.620408 -0.08428,-0.148221 -0.101246,-0.212107 -0.11128,-0.418986 -0.0079,-0.163171 0.0041,-0.299737 0.03619,-0.411917 0.02641,-0.0923 0.07534,-0.302276 0.108724,-0.466612 0.09146,-0.450209 0.15332,-0.548029 0.881958,-1.394644 0.581879,-0.676092 0.668487,-0.809813 0.785161,-1.212263 0.08091,-0.279073 0.129004,-0.388495 0.553512,-1.259241 0.181312,-0.371906 0.341929,-0.652959 0.470806,-0.823835 0.107586,-0.142645 0.283952,-0.388738 0.391924,-0.546873 0.107971,-0.158135 0.319811,-0.425881 0.470754,-0.594992 0.150944,-0.16911 0.31126,-0.348665 0.356258,-0.39901 0.203514,-0.2277 0.248943,-0.28879 0.379556,-0.51041 0.139993,-0.237536 0.305106,-0.656604 0.38941,-0.988352 0.02508,-0.09868 0.06816,-0.412426 0.09575,-0.697212 0.02758,-0.284785 0.05574,-0.52683 0.06257,-0.537878 0.0068,-0.01105 0.04066,-0.19387 0.07518,-0.406272 0.143261,-0.881418 0.36463,-1.76522 0.538133,-2.148466 0.04311,-0.09522 0.110133,-0.252147 0.148943,-0.348725 0.06936,-0.172589 0.270545,-0.509226 0.583444,-0.976247 l 0.158433,-0.236471 h -0.164193 c -0.303949,0 -0.408252,-0.109222 -0.423574,-0.443552 -0.0075,-0.163168 -0.02314,-0.21493 -0.08544,-0.282406 -0.109961,-0.119097 -0.117289,-0.164109 -0.05087,-0.312454 0.08013,-0.178988 0.06067,-0.212596 -0.123133,-0.212596 -0.08345,0 -0.160003,-0.0134 -0.170128,-0.02979 -0.01012,-0.01638 -0.02658,-0.09877 -0.03656,-0.183075 -0.01912,-0.161479 -0.04472,-0.183608 -0.122455,-0.105872 -0.02805,0.02805 -0.08636,0.04363 -0.142754,0.03814 l -0.09534,-0.0093 -0.0031,-0.269863 -0.0031,-0.2698617 -0.228565,-0.2285659 -0.228566,-0.2285659 -0.164971,0.049981 c -0.09073,0.027489 -0.311033,0.058097 -0.489555,0.068017 -0.311485,0.017308 -0.326023,0.015349 -0.360211,-0.048532 -0.01959,-0.036612 -0.02783,-0.091138 -0.0183,-0.1211678 0.0095,-0.03003 0.243712,-0.278377 0.520401,-0.5518825 0.28525,-0.2819672 0.503072,-0.5214104 0.503072,-0.5530069 0,-0.030648 -0.02125,-0.1353447 -0.04723,-0.2326588 -0.05882,-0.2201133 -0.03419,-0.7694365 0.0492,-1.0983006 0.214966,-0.8477813 0.776517,-1.5573479 1.371029,-1.7324097 0.04196,-0.012354 0.126185,-0.075932 0.187178,-0.1412852 0.09216,-0.09875 0.130963,-0.1188229 0.229682,-0.1188229 0.06533,0 0.149794,0.02172 0.187694,0.048266 0.0473,0.033129 0.10445,0.04271 0.182235,0.030551 0.155139,-0.024251 0.989015,0.1893614 1.196026,0.3063832 0.362436,0.2048833 0.916349,0.7437966 1.203522,1.1709325 0.112738,0.1676849 0.136778,0.2306472 0.15558,0.4074738 0.02172,0.204315 0.02479,0.210192 0.132763,0.2545655 0.173604,0.071345 0.278344,0.1867987 0.278344,0.3068156 0,0.0567 -0.01305,0.1274685 -0.02899,0.1572636 -0.02142,0.04003 -0.0106,0.081327 0.04146,0.1581841 0.104578,0.1543915 0.119967,0.2294578 0.06828,0.3330675 -0.04372,0.087645 -0.04197,0.094895 0.04364,0.1805083 0.11812,0.1181193 0.123435,0.2926163 0.01291,0.4239618 -0.04195,0.04986 -0.07621,0.1161338 -0.07613,0.147275 9.2e-5,0.031141 -0.02257,0.1200269 -0.05035,0.1975241 -0.04877,0.1360798 -0.04767,0.1554079 0.03194,0.5644793 0.109892,0.5646036 0.224023,0.8047366 0.520365,1.0948486 0.158333,0.155005 0.309784,0.263399 0.552187,0.395204 0.545848,0.2968 0.925178,0.641467 1.193729,1.084647 0.170278,0.281003 0.458979,0.967802 0.530303,1.261555 0.03552,0.146285 0.07346,0.462546 0.09207,0.767519 0.0396,0.64869 0.09264,0.992143 0.207336,1.34259 0.108183,0.330537 0.224815,0.810959 0.292584,1.205194 0.02741,0.159428 0.06961,0.392847 0.09378,0.518711 0.141628,0.737472 0.23177,1.258409 0.28775,1.662925 0.03484,0.251728 0.08385,0.581262 0.108929,0.732298 0.08041,0.484361 0.0956,1.021611 0.05519,1.952793 -0.05622,1.295701 -0.09679,1.885444 -0.152555,2.217954 -0.04475,0.266825 -0.04502,0.305528 -0.0028,0.396661 0.09973,0.215045 0.151538,0.573834 0.133629,0.925386 -0.05697,1.118264 -0.05584,1.109969 -0.164952,1.207465 -0.07772,0.06944 -0.128481,0.08875 -0.233336,0.08875 -0.08589,0 -0.190765,0.02945 -0.292064,0.082 -0.12313,0.06388 -0.201023,0.082 -0.352506,0.082 H 28.60283 l -0.08932,0.169726 c -0.164236,0.312078 -0.2012,0.491891 -0.196091,0.953897 0.0025,0.229913 0.02607,0.54229 0.05228,0.694171 0.02621,0.15188 0.04766,0.367025 0.04766,0.4781 0,0.175365 0.01361,0.224574 0.103349,0.373763 0.178129,0.296124 0.267562,0.494934 0.405064,0.900462 0.156163,0.460561 0.22546,0.825909 0.330577,1.742852 0.04232,0.3692 0.08449,0.712464 0.0937,0.762809 0.05491,0.300126 0.183134,0.812625 0.231874,0.926756 0.0749,0.175392 0.352963,0.600106 0.563454,0.860627 0.09239,0.114354 0.240167,0.349388 0.328386,0.522299 0.08822,0.17291 0.230505,0.444825 0.316193,0.604252 0.242134,0.450506 0.341469,0.761483 0.404483,1.266264 0.11382,0.911772 0.405373,2.244141 0.731109,3.341107 0.16628,0.55997 0.669612,2.048575 0.731848,2.16444 0.02196,0.04089 0.154383,0.195105 0.294268,0.342712 0.293979,0.310201 0.378968,0.457667 0.400224,0.69444 0.02889,0.321781 -0.07401,0.530709 -0.32254,0.654873 -0.202237,0.101035 -0.278919,0.114174 -0.65841,0.112795 -0.185823,-6.72e-4 -0.322078,0.0087 -0.302789,0.02094 0.01929,0.0122 -0.145478,0.0239 -0.366149,0.02601 -0.252635,0.0024 -0.361671,-0.0049 -0.294426,-0.01983 0.07412,-0.01642 0.02045,-0.02226 -0.175419,-0.01909 -0.155217,0.0025 -0.282225,0.01318 -0.28224,0.0237 -1.5e-5,0.01052 -0.161361,0.02581 -0.358548,0.03399 -0.295553,0.01225 -0.454981,0.03969 -0.907743,0.156236 -0.302073,0.07776 -0.58355,0.141361 -0.625504,0.141346 -0.04196,-1.6e-5 -0.117765,-0.02533 -0.168467,-0.05624 z m 0.748202,-0.196042 c 0.66282,-0.179187 0.595233,-0.165301 1.164334,-0.239232 0.434467,-0.05644 0.589153,-0.06235 1.202735,-0.04596 0.580449,0.01551 0.731467,0.01069 0.859685,-0.02738 0.326509,-0.09696 0.45733,-0.455126 0.28955,-0.792739 -0.04455,-0.08966 -0.163134,-0.244627 -0.326858,-0.427174 -0.242845,-0.270764 -0.312127,-0.40035 -0.473085,-0.884859 -0.0892,-0.268509 -0.195527,-0.577447 -0.236279,-0.686529 -0.134454,-0.3599 -0.224773,-0.623374 -0.266721,-0.778066 -0.02275,-0.08391 -0.112162,-0.385982 -0.198686,-0.671273 -0.142197,-0.468862 -0.364709,-1.291681 -0.478579,-1.769719 -0.02398,-0.10069 -0.08998,-0.443955 -0.14665,-0.762809 -0.145258,-0.817253 -0.270829,-1.300637 -0.408594,-1.572875 -0.205928,-0.406931 -0.493988,-0.87825 -0.628169,-1.027791 -0.160114,-0.178446 -0.311067,-0.41222 -0.471034,-0.729466 -0.198377,-0.393421 -0.518498,-1.742493 -0.599927,-2.528248 -0.03624,-0.349702 -0.111634,-0.703574 -0.217778,-1.022165 -0.108637,-0.326075 -0.399335,-0.976396 -0.436455,-0.976396 -0.01123,0 -0.05371,0.03566 -0.09439,0.07925 -0.118531,0.12699 -0.286533,0.196446 -0.806269,0.333332 -0.4597,0.121074 -1.28144,0.340296 -1.614357,0.430675 -0.08237,0.02236 -0.312357,0.06367 -0.511083,0.09179 -0.198726,0.02812 -0.361319,0.06238 -0.361319,0.07613 0,0.08193 0.136503,0.342515 0.393622,0.751428 0.501304,0.797261 0.525019,0.837602 0.694777,1.181839 0.09103,0.1846 0.212919,0.427232 0.270856,0.539179 0.05794,0.11195 0.10561,0.22866 0.105941,0.259355 10e-4,0.09403 0.174976,0.55632 0.277802,0.738241 0.05345,0.09455 0.130966,0.233707 0.172267,0.309225 0.0413,0.07552 0.13991,0.205959 0.21913,0.289868 0.140725,0.149053 0.524008,0.686053 0.860241,1.205239 0.191747,0.296083 0.326872,0.53805 0.579345,1.037422 0.09757,0.192991 0.241059,0.467602 0.31886,0.610248 0.0778,0.142645 0.222703,0.451583 0.322006,0.686528 0.0993,0.234946 0.205691,0.482096 0.236419,0.549223 0.03073,0.06713 0.0742,0.170107 0.09659,0.228843 0.0224,0.05874 0.230559,0.484385 0.46258,0.945885 0.23202,0.4615 0.43617,0.894013 0.453667,0.96114 0.0175,0.06713 0.07097,0.218164 0.118825,0.335636 0.194036,0.47629 0.30116,1.025198 0.261705,1.340989 -0.04129,0.33045 -0.354974,0.660621 -0.855862,0.900836 -0.456568,0.218963 -0.528105,0.242519 -0.965879,0.318022 -0.24073,0.04152 -0.502093,0.08999 -0.580808,0.107717 -0.07871,0.01772 -0.223659,0.02381 -0.322099,0.01352 -0.144692,-0.01512 -0.188884,-0.0088 -0.23066,0.03297 -0.07142,0.07142 -0.07017,0.18363 0.0017,0.153566 0.180083,-0.07532 0.419876,-0.13401 0.482898,-0.118193 0.104983,0.02635 0.06695,0.06146 -0.08987,0.08295 -0.179033,0.02454 -0.385396,0.109021 -0.385396,0.157774 0,0.06011 0.09968,0.163339 0.167818,0.173786 0.04312,0.0066 0.0638,-0.01011 0.07047,-0.05698 0.0052,-0.03649 0.04199,-0.08766 0.08177,-0.113723 0.103233,-0.06764 0.499003,-0.172736 0.52036,-0.138181 0.01933,0.03127 -0.04876,0.06157 -0.307375,0.136747 -0.187239,0.05443 -0.223392,0.100182 -0.170645,0.215952 0.02689,0.059 0.05377,0.07415 0.118433,0.06671 0.06499,-0.0075 0.08576,-0.02785 0.09309,-0.09131 0.0052,-0.04492 0.02579,-0.09477 0.04577,-0.110782 0.08562,-0.06859 0.502254,-0.21946 0.606058,-0.21946 0.172921,0 0.166039,0.05068 -0.01005,0.07404 -0.08591,0.0114 -0.243552,0.06033 -0.350311,0.108734 -0.166434,0.07546 -0.194107,0.09937 -0.194107,0.167681 0,0.06042 0.02315,0.0894 0.09586,0.119975 0.122343,0.05144 0.206456,0.02912 0.241936,-0.0642 0.04514,-0.11873 0.566251,-0.336714 0.57749,-0.241567 0.0018,0.01505 -0.0627,0.05062 -0.143277,0.07906 -0.239637,0.08457 -0.344839,0.149556 -0.344839,0.213022 0,0.07497 0.119129,0.160605 0.198331,0.142566 0.03356,-0.0076 0.287579,-0.07515 0.564479,-0.150008 z m 2.584206,-1.577625 c -0.07884,-0.05 -0.170725,-0.135817 -0.20419,-0.190702 -0.07552,-0.123865 -0.08112,-0.375892 -0.0119,-0.535578 0.05946,-0.137181 0.08941,-0.08638 0.04447,0.07544 -0.07572,0.272674 -0.03198,0.376599 0.228681,0.54334 0.09123,0.05836 0.165873,0.126873 0.165873,0.152257 0,0.06906 -0.06359,0.05629 -0.222934,-0.04476 z m -12.772421,1.142552 c 0.301857,-0.106501 0.391883,-0.284196 0.393673,-0.777035 0.0018,-0.488949 0.04132,-0.726601 0.152213,-0.91467 0.05057,-0.08577 0.09195,-0.163073 0.09195,-0.171785 0,-0.0087 0.03407,-0.08705 0.07572,-0.1741 0.04165,-0.08705 0.172486,-0.384826 0.290758,-0.661726 0.118272,-0.2769 0.265132,-0.585838 0.326356,-0.686528 0.512068,-0.842167 0.783617,-1.260284 0.971002,-1.495108 0.436272,-0.546712 0.778121,-1.127744 0.978378,-1.662925 0.185101,-0.494676 0.179834,-0.469888 0.286342,-1.347555 0.05023,-0.41391 0.112112,-0.890956 0.137518,-1.060105 0.0619,-0.412137 0.06092,-0.473076 -0.0072,-0.445124 -0.09171,0.03763 -0.135325,0.03218 -0.169954,-0.02125 -0.02704,-0.04172 -0.01805,-0.06375 0.04686,-0.114815 0.32492,-0.255585 0.983675,-1.344605 1.154397,-1.908395 0.07884,-0.260362 0.207666,-0.501868 0.511133,-0.958211 l 0.231395,-0.347967 -0.114817,-0.216512 c -0.06315,-0.119085 -0.132199,-0.285169 -0.153443,-0.369078 -0.04555,-0.179897 -0.02276,-0.177573 -0.565086,-0.05765 -0.284724,0.06296 -0.390146,0.07321 -0.574875,0.0559 -0.281117,-0.02634 -0.328554,-0.06689 -0.462045,-0.394914 -0.162268,-0.39874 -0.157568,-0.393204 -0.3589,-0.422783 -0.09779,-0.01437 -0.250314,-0.04325 -0.338945,-0.06419 -0.08863,-0.02094 -0.165847,-0.02978 -0.171594,-0.01965 -0.02909,0.05129 -0.4283,1.300436 -0.478832,1.498275 -0.03215,0.125864 -0.09151,0.324957 -0.131916,0.44243 -0.04041,0.117473 -0.09455,0.30571 -0.120324,0.418307 -0.02577,0.112596 -0.119508,0.352881 -0.208302,0.533966 l -0.161443,0.329247 0.003,0.289868 c 0.0018,0.172038 0.02479,0.370488 0.05667,0.488198 0.09208,0.340021 0.09189,0.330773 0.0071,0.352046 -0.09207,0.02311 -0.117281,0.108609 -0.188616,0.639607 -0.08784,0.653856 -0.233415,1.460607 -0.300069,1.662926 -0.0809,0.245551 -0.167452,0.556094 -0.277796,0.996702 -0.05954,0.237722 -0.137465,0.505468 -0.173177,0.594992 -0.08034,0.201397 -0.16051,0.429196 -0.255937,0.727247 -0.193347,0.60389 -0.519388,1.324931 -0.786773,1.739948 -0.143692,0.223028 -0.744287,0.830346 -1.029368,1.040891 -0.256308,0.189293 -0.653683,0.356937 -0.910865,0.384273 -0.148617,0.0158 -0.162345,0.01214 -0.152562,-0.04063 0.0074,-0.04016 0.06469,-0.07551 0.186196,-0.11498 0.0965,-0.03135 0.174989,-0.06567 0.174431,-0.07628 -0.0034,-0.06546 -0.323145,-0.350365 -0.364485,-0.324814 -0.02501,0.01546 -0.01996,0.03849 0.01752,0.0799 0.02896,0.032 0.04476,0.06608 0.03511,0.07573 -0.02577,0.02577 -0.14079,-0.04206 -0.303775,-0.179142 -0.09617,-0.08088 -0.160761,-0.114314 -0.195273,-0.101072 -0.04607,0.01768 -0.04402,0.02783 0.01923,0.09516 0.141998,0.151149 0.02411,0.111138 -0.217335,-0.07377 -0.16052,-0.122928 -0.270501,-0.18636 -0.312649,-0.180322 -0.09481,0.01358 -0.100592,0.104551 -0.0081,0.127762 0.08532,0.02141 0.293367,0.258134 0.293367,0.333796 0,0.07707 -0.0776,0.02951 -0.163388,-0.100126 -0.05631,-0.08509 -0.116124,-0.129605 -0.223157,-0.166073 -0.08043,-0.0274 -0.197182,-0.09077 -0.259458,-0.140818 -0.106763,-0.0858 -0.238857,-0.1219 -0.238857,-0.06528 0,0.02536 0.258549,0.254583 0.30943,0.274327 0.03218,0.01249 0.03507,0.09662 0.0033,0.09662 -0.01259,-3e-6 -0.152275,-0.08925 -0.31042,-0.198331 -0.315755,-0.217794 -0.436048,-0.248081 -0.537979,-0.135447 -0.109023,0.120469 -0.03169,0.440849 0.143645,0.595129 0.100416,0.08835 0.229979,0.165822 0.277335,0.165822 0.04434,0 0.188107,0.129956 0.282485,0.255346 0.03356,0.04459 0.09535,0.100316 0.137306,0.123829 0.04195,0.02351 0.119304,0.08519 0.171888,0.137055 0.05258,0.05187 0.155577,0.12083 0.228873,0.153252 0.129277,0.05719 0.569356,0.167791 0.970366,0.243883 0.362953,0.06887 0.750127,0.312154 1.095771,0.688536 0.331648,0.361142 0.514163,0.521024 0.632332,0.553922 0.177315,0.04936 0.384823,0.04714 0.534668,-0.0057 z M 30.533606,42.02552 c -0.0411,-0.474883 -0.223998,-0.923906 -1.087466,-2.669835 -0.327836,-0.662881 -0.673028,-1.38777 -0.767094,-1.610865 -0.227534,-0.539636 -0.584718,-1.249473 -0.688283,-1.367831 -0.04585,-0.0524 -0.15473,-0.224467 -0.241953,-0.382372 -0.08722,-0.157904 -0.203404,-0.334718 -0.25818,-0.392923 -0.05477,-0.05821 -0.199864,-0.256863 -0.32242,-0.441462 -0.122556,-0.1846 -0.280189,-0.397424 -0.350297,-0.472943 -0.251715,-0.271142 -0.622423,-0.977138 -0.673835,-1.283287 -0.04161,-0.247782 -0.753453,-1.610154 -0.985123,-1.885394 l -0.08601,-0.102189 -0.120965,0.163214 c -0.217203,0.293059 -0.29398,0.427033 -0.731773,1.276913 -0.37115,0.720507 -0.552816,1.032616 -0.793448,1.363168 -0.03859,0.05302 -0.05011,0.169811 -0.05715,0.579736 -0.0081,0.471972 -0.06718,1.247246 -0.13792,1.81012 -0.02606,0.20739 -0.199749,0.817192 -0.243338,0.854347 -0.0098,0.0084 -0.04359,0.09078 -0.07498,0.183074 -0.04842,0.142359 -0.185005,0.406459 -0.378717,0.732298 -0.03666,0.06166 -0.03011,0.05874 0.03419,-0.01526 0.04375,-0.05035 0.08003,-0.108701 0.08064,-0.129678 6.04e-4,-0.02098 0.01483,-0.03814 0.03161,-0.03814 0.01678,0 0.03051,-0.0206 0.03051,-0.04577 0,-0.02517 0.01347,-0.04577 0.02993,-0.04577 0.01646,0 0.03841,-0.03376 0.04876,-0.07503 0.02243,-0.08937 0.104108,-0.170503 0.104848,-0.104151 3.67e-4,0.03289 0.0068,0.03206 0.03005,-0.0039 0.02246,-0.03476 0.02969,-0.0359 0.03005,-0.0048 2.44e-4,0.02255 -0.02699,0.04818 -0.06056,0.05696 -0.03524,0.0092 -0.06103,0.04162 -0.06103,0.07669 0,0.03987 0.01485,0.05503 0.04324,0.04414 0.04219,-0.01619 0.09602,0.06405 0.06427,0.0958 -0.0088,0.0088 -0.01597,-0.0015 -0.01597,-0.02289 0,-0.02201 -0.01985,-0.03124 -0.04577,-0.0213 -0.02517,0.0097 -0.04577,0.0043 -0.04577,-0.01199 0,-0.01625 -0.01373,-0.02955 -0.03051,-0.02955 -0.01678,0 -0.03051,0.0206 -0.03051,0.04577 0,0.02517 -0.01407,0.04577 -0.03127,0.04577 -0.05253,0 -0.09523,0.150862 -0.05898,0.208375 0.0266,0.04221 0.0289,0.03917 0.01336,-0.01767 l -0.01877,-0.06865 h 1.251876 c 1.175443,0 1.255208,0.0034 1.30646,0.05614 0.03002,0.03088 0.07861,0.06477 0.107982,0.07532 0.02937,0.01055 0.0534,0.04021 0.0534,0.06591 0,0.0257 0.01188,0.04673 0.02639,0.04673 0.01452,0 0.107199,0.05489 0.205959,0.121977 0.09876,0.06709 0.193295,0.122315 0.210077,0.12273 0.01678,4.27e-4 0.06484,0.0276 0.106793,0.06042 0.04196,0.03282 0.10031,0.05997 0.129678,0.06035 0.02937,3.66e-4 0.0534,0.01978 0.0534,0.04313 0,0.02335 0.05492,0.06443 0.12205,0.09129 0.06713,0.02686 0.12205,0.06267 0.12205,0.07959 0,0.01692 0.01421,0.03076 0.03157,0.03076 0.03971,0 0.456632,0.418859 0.456632,0.458751 0,0.0162 0.0206,0.02945 0.04577,0.02945 0.02517,0 0.04577,0.01524 0.04577,0.03388 0,0.01863 0.06228,0.09758 0.138393,0.175447 0.07612,0.07786 0.202267,0.206791 0.280335,0.286505 0.07807,0.07971 0.15653,0.145153 0.174359,0.145422 0.01783,3.05e-4 0.07909,0.04162 0.13613,0.0919 0.05704,0.05027 0.170319,0.115065 0.251727,0.143979 0.08141,0.02891 0.148014,0.06308 0.148014,0.07592 0,0.01284 0.02578,0.02335 0.05729,0.02335 0.03151,0 0.07296,0.01888 0.09212,0.04197 0.01916,0.02308 0.09609,0.05912 0.170974,0.08008 0.07488,0.02096 0.151819,0.057 0.170975,0.08008 0.01916,0.02308 0.05374,0.04197 0.07686,0.04197 0.02312,0 0.04203,0.01048 0.04203,0.02329 0,0.01281 0.096,0.06995 0.213329,0.12699 0.117332,0.05704 0.23617,0.128942 0.264085,0.159787 0.02792,0.03085 0.06579,0.0561 0.08417,0.05612 0.01838,2.2e-5 0.07036,0.03181 0.115512,0.07065 0.04515,0.03884 0.118762,0.09718 0.163571,0.129641 0.04481,0.03246 0.09711,0.07473 0.11623,0.0939 0.06344,0.06365 0.337114,0.363167 0.538214,0.589032 0.109082,0.122514 0.225792,0.249354 0.259356,0.281865 0.06064,0.05873 0.06116,0.05837 0.08332,-0.05718 0.01226,-0.06396 0.01397,-0.212405 0.0038,-0.329878 z m -8.133062,-3.30956 c -0.0036,-0.04757 0.01191,-0.108789 0.03453,-0.13604 0.02262,-0.02725 0.03341,-0.05725 0.02399,-0.06668 -0.0094,-0.0094 -0.03481,0.01494 -0.05641,0.05414 -0.04739,0.08599 -0.06618,0.278745 -0.02468,0.253094 0.01604,-0.0099 0.0262,-0.05695 0.02257,-0.104514 z m 0.250026,-0.289102 c 0,-0.0074 -0.01373,-0.02194 -0.03051,-0.03231 -0.01678,-0.01037 -0.03051,-0.0043 -0.03051,0.01346 0,0.01777 0.01373,0.03231 0.03051,0.03231 0.01678,0 0.03051,-0.0061 0.03051,-0.01346 z m 5.184963,-9.112923 c 0.02094,0.03365 0.04812,0.02084 0.129468,-0.06103 0.188161,-0.189366 0.192833,-0.215739 0.116406,-0.656995 -0.08988,-0.518902 -0.09905,-1.161143 -0.02065,-1.445187 0.0679,-0.246009 0.147785,-0.421788 0.282766,-0.622223 0.06528,-0.09694 0.104402,-0.191934 0.104402,-0.253527 0,-0.06772 0.01933,-0.108846 0.06188,-0.131616 0.03403,-0.01821 0.05453,-0.04501 0.04555,-0.05954 -0.009,-0.01453 -0.0028,-0.0619 0.01365,-0.105262 0.02368,-0.06228 0.05064,-0.07884 0.12837,-0.07884 0.07653,0 0.09026,-0.0081 0.06178,-0.03661 -0.06475,-0.06475 -0.04435,-0.20527 0.03505,-0.241444 0.06881,-0.03135 0.07245,-0.04986 0.09143,-0.46466 0.01087,-0.237605 0.01973,-0.562449 0.01969,-0.721876 -9.2e-5,-0.311724 -0.126441,-1.400026 -0.177135,-1.52562 -0.01693,-0.04196 -0.06124,-0.155705 -0.09847,-0.252779 -0.03722,-0.09707 -0.09306,-0.19008 -0.124077,-0.206682 -0.155336,-0.08313 -1.146836,-0.117261 -1.312842,-0.04519 -0.05647,0.02452 -0.07926,0.04511 -0.05065,0.04577 0.03438,7.9e-4 0.05847,0.03561 0.07106,0.102733 0.01048,0.05585 0.06009,0.140275 0.110251,0.187619 0.05314,0.05016 0.07808,0.09419 0.05976,0.105512 -0.03717,0.02297 -0.0092,0.154553 0.0329,0.154553 0.01595,0 0.02029,-0.02746 0.0096,-0.06103 -0.02756,-0.08682 7.51e-4,-0.07556 0.07612,0.03029 0.05854,0.08221 0.05951,0.08962 0.0097,0.07434 -0.03043,-0.0093 -0.01756,0.0049 0.02859,0.03171 0.04615,0.02678 0.08391,0.06135 0.08391,0.07684 0,0.01548 0.03495,0.0631 0.07767,0.105819 0.04272,0.04272 0.06385,0.07767 0.04696,0.07767 -0.01689,0 -0.05527,-0.02576 -0.0853,-0.05724 -0.03002,-0.03148 -0.08568,-0.0668 -0.123682,-0.07848 -0.038,-0.01168 -0.06183,-0.03299 -0.05295,-0.04736 0.0089,-0.01436 -0.01015,-0.03446 -0.04229,-0.04466 -0.03214,-0.0102 -0.06661,-0.05111 -0.0766,-0.09091 -0.01416,-0.05641 -0.03283,-0.06853 -0.08469,-0.05497 l -0.06653,0.0174 0.0659,0.02438 c 0.04263,0.01577 0.05953,0.04095 0.04788,0.07132 -0.02004,0.05221 -0.07251,0.0641 -0.07251,0.01643 0,-0.04893 -0.06599,-0.03521 -0.110087,0.02288 -0.0659,0.08682 -0.04851,0.263104 0.04696,0.475884 0.05461,0.121718 0.07667,0.203588 0.05665,0.210261 -0.04651,0.0155 0.02677,0.145317 0.08203,0.145317 0.07228,0 0.08034,0.05146 0.02841,0.181244 -0.04308,0.107661 -0.0651,0.126702 -0.16501,0.142679 -0.08233,0.01317 -0.124985,0.0397 -0.149177,0.09279 -0.05693,0.124936 -0.03899,0.217056 0.08817,0.452888 0.06713,0.124494 0.12205,0.251628 0.12205,0.28252 0,0.03089 0.01625,0.07242 0.03611,0.09227 0.01986,0.01986 0.02598,0.04624 0.0136,0.05862 -0.02953,0.02953 -0.07153,-0.03841 -0.117034,-0.18931 -0.03246,-0.107638 -0.03803,-0.112878 -0.04719,-0.04437 -0.0057,0.04272 0.01075,0.118239 0.03658,0.167818 0.04407,0.08459 0.04322,0.09184 -0.01383,0.11769 -0.0408,0.01849 -0.0608,0.05722 -0.0608,0.11776 0,0.08728 0.0037,0.08959 0.114421,0.07122 0.238796,-0.03964 0.234088,-0.04108 0.264496,0.08097 0.01568,0.06293 0.04668,0.114422 0.06889,0.114422 0.02221,0 0.04039,0.01261 0.04039,0.02802 0,0.01541 0.007,0.0463 0.01559,0.06865 0.01008,0.02627 -0.0088,0.04111 -0.0534,0.04197 -0.03795,7.33e-4 -0.144508,0.01054 -0.236808,0.0218 -0.109906,0.01341 -0.146759,0.01086 -0.106794,-0.0074 0.05112,-0.02332 0.04542,-0.02708 -0.0351,-0.02317 -0.08133,0.004 -0.106013,0.02502 -0.160359,0.13688 l -0.06423,0.132212 0.06292,-0.03367 c 0.03461,-0.01852 0.07013,-0.05247 0.07895,-0.07545 0.03705,-0.09656 0.712818,-0.154407 0.712818,-0.06102 0,0.03498 -0.03849,0.04577 -0.163342,0.04577 -0.240661,0 -0.538443,0.03552 -0.538443,0.06423 0,0.01376 0.12664,0.02897 0.281422,0.03379 0.265329,0.0083 0.283582,0.01312 0.319198,0.08471 0.04546,0.09139 0.02354,0.118412 -0.108566,0.133794 -0.109817,0.01279 -0.20794,0.08014 -0.116752,0.08014 0.02853,0 0.05187,-0.01373 0.05187,-0.03051 0,-0.01678 0.01612,-0.03051 0.03583,-0.03051 0.04362,0 -0.08825,0.145378 -0.173136,0.190872 -0.05494,0.02944 -0.05679,0.02757 -0.01854,-0.0188 0.04836,-0.05862 0.02021,-0.109678 -0.03179,-0.05767 -0.01873,0.01873 -0.02523,0.05706 -0.01444,0.08518 0.01816,0.04734 0.02581,0.04703 0.103217,-0.0041 0.260886,-0.172292 0.648077,-0.371583 0.648077,-0.333572 0,0.02316 -0.07904,0.09013 -0.175652,0.148818 -0.229563,0.139452 -0.358113,0.250958 -0.317941,0.275786 0.01743,0.01077 0.04031,0.0056 0.05086,-0.01142 0.0287,-0.04643 0.137614,-0.03737 0.137614,0.01145 0,0.02335 -0.03433,0.05108 -0.07628,0.06161 -0.04196,0.01053 -0.07628,0.03261 -0.07628,0.04908 0,0.01646 -0.02528,0.0059 -0.05618,-0.02347 -0.0309,-0.02937 -0.05069,-0.06369 -0.04397,-0.07628 0.01724,-0.0323 -0.0039,-0.0286 -0.08903,0.01556 -0.09667,0.05015 -0.08541,0.160469 0.05156,0.50546 l 0.10154,0.255751 -0.157405,-0.01867 c -0.189054,-0.02242 -0.251065,0.008 -0.220771,0.108375 0.01192,0.03948 0.02788,0.181621 0.03548,0.315876 0.01911,0.33774 0.07778,0.845139 0.09565,0.827266 0.0081,-0.0081 9.1e-5,-0.128928 -0.01785,-0.268456 -0.04479,-0.348314 -0.05154,-0.766771 -0.01258,-0.779757 0.01729,-0.0058 0.03955,0.0107 0.04949,0.03658 0.0099,0.02588 0.0052,0.04706 -0.01054,0.04706 -0.01573,0 -0.02069,0.0206 -0.01103,0.04577 0.0097,0.02517 0.04699,0.04556 0.08295,0.0453 0.05221,-3.72e-4 0.05634,-0.0062 0.0205,-0.02885 -0.02469,-0.01561 -0.03676,-0.03651 -0.02683,-0.04644 0.02698,-0.02698 0.178506,0.0496 0.178506,0.09021 0,0.04554 0.160152,0.199142 0.207628,0.199142 0.02006,0 0.03647,0.01373 0.03647,0.03051 0,0.01678 -0.02108,0.03051 -0.04684,0.03051 -0.02576,0 -0.08068,0.02217 -0.122049,0.04928 -0.06792,0.0445 -0.07497,0.06889 -0.0728,0.251728 0.0013,0.111347 0.0093,0.185286 0.0178,0.164308 0.03511,-0.08701 0.07076,-0.03007 0.05253,0.08391 -0.01362,0.0852 -0.0085,0.122049 0.01695,0.122049 0.02354,0 0.02921,-0.02433 0.016,-0.06865 -0.02013,-0.06754 -0.01969,-0.06766 0.02749,-0.0076 0.02637,0.03356 0.04839,0.07672 0.04892,0.0959 5.34e-4,0.01918 0.02157,0.04278 0.04674,0.05244 0.02517,0.0097 0.04556,0.03516 0.0453,0.05666 -3.61e-4,0.03014 -0.0065,0.02963 -0.02663,-0.0022 -0.02039,-0.03217 -0.04047,-0.03364 -0.09093,-0.0066 -0.05699,0.0305 -0.06386,0.05798 -0.05728,0.229002 0.0041,0.106889 0.01683,0.1886 0.02826,0.181581 0.01143,-0.007 0.02946,0.0013 0.04007,0.01846 0.01061,0.01717 -0.0022,0.03946 -0.0284,0.04953 -0.02624,0.01007 -0.0477,0.03068 -0.0477,0.04581 0,0.01513 0.02788,0.01023 0.06196,-0.01089 0.05067,-0.03141 0.06678,-0.03064 0.08846,0.0042 z m -0.07414,-2.803967 c -0.01037,-0.01678 0.0025,-0.03051 0.02871,-0.03051 0.02616,0 0.04757,0.01373 0.04757,0.03051 0,0.01678 -0.01292,0.03051 -0.02871,0.03051 -0.01579,0 -0.0372,-0.01373 -0.04757,-0.03051 z m 0.09114,-0.87974 c -0.262127,-0.116298 -0.424778,-0.206918 -0.470695,-0.262244 -0.06069,-0.07313 0.0062,-0.06079 0.20582,0.03795 0.09555,0.04727 0.244145,0.111171 0.330202,0.141994 0.08606,0.03082 0.189036,0.08109 0.228843,0.1117 l 0.07238,0.05566 -0.09154,-0.0018 c -0.05035,-0.001 -0.174099,-0.03846 -0.275008,-0.08323 z m 0.58789,-0.172937 C 28.33014,25.130755 28.233112,24.698758 28.26328,24.66859 c 0.03773,-0.03773 0.03899,-0.03422 0.155211,0.433907 0.100003,0.40279 0.113864,0.626978 0.02193,0.354794 z m -1.290922,-0.01792 c -0.01128,-0.01824 -0.0064,-0.04725 0.0108,-0.06447 0.0385,-0.0385 0.09764,-0.006 0.09764,0.05367 0,0.05137 -0.07853,0.05919 -0.108437,0.0108 z m 0.276255,-0.985868 c -0.179459,-0.07279 -0.182701,-0.07469 -0.162215,-0.09518 0.01351,-0.01351 0.326038,0.04335 0.355714,0.06472 0.0057,0.0041 -0.0011,0.02659 -0.01526,0.04993 -0.02143,0.0354 -0.05094,0.03217 -0.178243,-0.01946 z m -0.32038,-0.10992 c 0,-0.01678 0.02141,-0.03051 0.04757,-0.03051 0.02616,0 0.03908,0.01373 0.02871,0.03051 -0.01037,0.01678 -0.03178,0.03051 -0.04757,0.03051 -0.01579,0 -0.02871,-0.01373 -0.02871,-0.03051 z m 0.274611,-0.02944 c 0,-0.01619 0.02779,-0.04431 0.06175,-0.06248 0.04738,-0.02536 0.07222,-0.02257 0.106793,0.012 0.06662,0.06662 0.05635,0.07992 -0.06174,0.07992 -0.05874,0 -0.106794,-0.01325 -0.106794,-0.02944 z m 0.236879,4.611914 c -0.0354,-0.09379 -0.08432,-0.131354 -0.08432,-0.06475 0,0.0324 0.100488,0.181119 0.113891,0.168557 0.0039,-0.0037 -0.0094,-0.05037 -0.02957,-0.103805 z m -0.08432,-0.205747 c 0,-0.02418 -0.01913,-0.04397 -0.0425,-0.04397 -0.0547,0 -0.0876,0.08346 -0.03969,0.100705 0.04999,0.01799 0.08219,-0.0042 0.08219,-0.05674 z m 0.12205,0.04937 c 0,-0.01579 -0.01373,-0.0372 -0.03051,-0.04757 -0.01678,-0.01037 -0.03051,0.0025 -0.03051,0.02871 0,0.02616 0.01373,0.04757 0.03051,0.04757 0.01678,0 0.03051,-0.01292 0.03051,-0.02871 z M 27.296138,28.6905 c -0.03659,-0.02563 -0.07026,-0.08855 -0.07719,-0.144233 l -0.01228,-0.09877 -0.0049,0.1107 c -0.0037,0.08411 0.01161,0.121785 0.06377,0.156855 0.088,0.05917 0.116934,0.03593 0.03058,-0.02455 z m 0.404227,-0.715943 c 0.01037,-0.01678 -0.0094,-0.03051 -0.04397,-0.03051 -0.03455,0 -0.06283,0.01373 -0.06283,0.03051 0,0.01678 0.01979,0.03051 0.04397,0.03051 0.02418,0 0.05245,-0.01373 0.06283,-0.03051 z M 16.944753,26.765784 c 0,-0.03316 -0.205266,-0.298571 -0.302546,-0.391202 -0.05176,-0.04929 -0.09411,-0.119125 -0.09411,-0.15519 0,-0.03606 0.0668,-0.14881 0.148452,-0.250545 0.08165,-0.101736 0.206424,-0.299647 0.27728,-0.439802 0.151397,-0.299468 0.174767,-0.33111 0.244548,-0.33111 0.10805,0 0.152716,0.100853 0.173338,0.39139 0.01093,0.153936 0.02929,0.279883 0.04081,0.279883 0.02849,0 0.116515,-0.324159 0.167811,-0.617987 0.03085,-0.176728 0.0744,-0.29552 0.163012,-0.44471 0.137491,-0.231476 0.17488,-0.341158 0.204156,-0.598902 0.01135,-0.09996 0.05639,-0.278459 0.100078,-0.396661 0.07211,-0.195094 0.111931,-0.247398 0.431818,-0.56716 0.193812,-0.193736 0.496556,-0.48047 0.672765,-0.637186 0.699257,-0.621904 1.197917,-1.137221 1.830743,-1.891899 0.159427,-0.190126 0.303598,-0.361056 0.32038,-0.379845 0.02662,-0.0298 0.265148,-0.309881 0.41829,-0.491153 0.02868,-0.03395 0.117927,-0.153963 0.198331,-0.266706 0.0804,-0.112743 0.235438,-0.327439 0.344519,-0.477102 0.109082,-0.149663 0.236431,-0.33203 0.282997,-0.405261 0.04657,-0.07323 0.138696,-0.215529 0.204735,-0.31622 0.115382,-0.175928 0.485762,-0.8634 0.739293,-1.372222 0.167964,-0.337093 0.337379,-0.534803 0.458267,-0.534803 h 0.09296 l -0.01685,0.163249 c -0.0157,0.152101 -0.126597,0.416166 -0.29024,0.691098 -0.03496,0.05874 -0.107627,0.189177 -0.161481,0.289868 -0.157963,0.295341 -0.456874,0.763552 -0.648829,1.016314 -0.09803,0.129082 -0.241086,0.330808 -0.317907,0.448281 -0.07682,0.117472 -0.148127,0.220452 -0.158456,0.228843 -0.06975,0.05666 -0.147855,0.195479 -0.134143,0.238418 0.01222,0.03827 0.0091,0.04121 -0.01226,0.01149 -0.02217,-0.03088 -0.04045,-0.02201 -0.08043,0.039 -0.02846,0.04343 -0.04328,0.09265 -0.03295,0.109369 0.01034,0.01672 0.0061,0.02663 -0.0093,0.02202 -0.07099,-0.02117 -0.328186,0.328042 -0.398093,0.540506 -0.07048,0.214202 -0.08188,0.819259 -0.02071,1.098779 0.09799,0.44773 0.191805,0.792378 0.240875,0.884859 0.02671,0.05035 0.04865,0.106131 0.04876,0.123968 9.1e-5,0.01784 0.03451,0.103585 0.07647,0.190552 0.04195,0.08697 0.07628,0.178787 0.07628,0.204042 0,0.02525 0.01061,0.04592 0.02357,0.04592 0.01297,0 0.04945,0.04806 0.08109,0.106793 0.05574,0.103501 0.117933,0.135764 0.152839,0.07928 0.03055,-0.04944 0.341311,-0.24361 0.58607,-0.366199 0.417616,-0.209166 0.812553,-0.354388 1.170249,-0.430312 0.0923,-0.01959 0.215876,-0.04701 0.274612,-0.06093 0.05874,-0.01392 0.168581,-0.03454 0.244099,-0.04583 0.07552,-0.01129 0.267746,-0.05298 0.427173,-0.09266 0.934824,-0.232654 1.99233,-0.348266 2.645505,-0.289221 0.210101,0.01899 0.38981,0.02672 0.399353,0.01718 0.0095,-0.0095 -0.0062,-0.117107 -0.03491,-0.239033 -0.03941,-0.167172 -0.05631,-0.420295 -0.06872,-1.029394 -0.01657,-0.813311 0.0095,-1.429124 0.09572,-2.25705 0.109575,-1.052717 0.144122,-1.328665 0.234928,-1.876512 0.09055,-0.546277 0.0962,-0.62728 0.09792,-1.40357 0.0017,-0.756548 -0.0036,-0.843771 -0.06504,-1.067933 -0.03678,-0.134255 -0.08187,-0.338094 -0.100217,-0.452975 C 28.2701,12.673327 27.722136,11.851071 27.125785,11.516079 26.362384,11.087268 26.10269,10.8569 25.880591,10.411525 25.778743,10.20729 25.745692,10.093149 25.690635,9.7555085 l -0.06666,-0.408761 -0.08764,-0.010089 c -0.06361,-0.00732 -0.107973,0.011842 -0.1618,0.069893 -0.04079,0.04399 -0.114617,0.088073 -0.164061,0.097961 -0.05019,0.010037 -0.117586,0.056866 -0.152583,0.1060141 -0.124677,0.1750923 -0.381469,0.227176 -0.487883,0.098955 -0.02171,-0.026163 -0.09093,-0.068156 -0.153814,-0.093317 -0.06288,-0.025161 -0.136063,-0.07891 -0.162621,-0.1194416 -0.03374,-0.051488 -0.07658,-0.073694 -0.142171,-0.073694 -0.06661,0 -0.124905,-0.03102 -0.200678,-0.1067933 -0.05874,-0.058736 -0.135429,-0.1067934 -0.170429,-0.1067934 -0.035,0 -0.09198,-0.025697 -0.126626,-0.057105 -0.03464,-0.031408 -0.120129,-0.064264 -0.189964,-0.073015 -0.11091,-0.013897 -0.129193,-0.00764 -0.144518,0.049477 -0.03097,0.1154189 -0.02,0.1965718 0.05795,0.4287836 0.0589,0.1754719 0.06952,0.2452708 0.04652,0.3057665 -0.02686,0.070655 -0.04586,0.07839 -0.192545,0.07839 -0.169021,0 -0.291159,-0.056564 -0.253547,-0.1174208 0.01195,-0.019327 0.07557,-0.035141 0.141386,-0.035141 0.09883,0 0.122683,-0.012013 0.136987,-0.069007 0.0095,-0.037954 -0.0051,-0.122564 -0.03241,-0.1880219 -0.04103,-0.098196 -0.04542,-0.1701887 -0.02512,-0.4115628 0.03287,-0.3907401 0.02612,-0.4288446 -0.0965,-0.5442758 -0.08517,-0.080182 -0.130247,-0.099076 -0.235462,-0.098698 -0.174754,6.286e-4 -0.21758,0.031726 -0.1937,0.1406551 0.01503,0.068562 -0.0042,0.1241485 -0.08828,0.25451 -0.05913,0.091734 -0.107506,0.1761938 -0.107506,0.1876884 0,0.039074 -0.216734,0.1489768 -0.293791,0.1489768 -0.07421,0 -0.163405,-0.060909 -0.164362,-0.112242 -2.44e-4,-0.013785 -0.01269,-0.044364 -0.02762,-0.067953 -0.04127,-0.065185 -0.490623,0.3458515 -0.490623,0.4487845 0,0.041372 -0.01589,0.128268 -0.03532,0.1931007 -0.02998,0.1000535 -0.02767,0.126328 0.01526,0.1737608 0.07238,0.079979 0.06307,0.1193297 -0.04096,0.1731276 -0.08131,0.04205 -0.09154,0.06281 -0.09154,0.18581 v 0.138475 l 0.117569,-0.06608 c 0.189497,-0.106504 0.227715,-0.08392 0.324704,0.19185 0.04822,0.137123 0.057,0.144959 0.16287,0.145401 0.188825,7.87e-4 0.20626,0.02737 0.167268,0.254997 -0.03165,0.184763 -0.02901,0.207751 0.03926,0.342614 0.04025,0.07951 0.07319,0.194102 0.07319,0.254651 0,0.108718 0.05936,0.225804 0.151162,0.298143 0.115528,0.09104 0.472044,-0.0014 0.836727,-0.217048 0.122914,-0.07267 0.373449,-0.200958 0.556743,-0.285087 0.183294,-0.08413 0.385259,-0.188249 0.448811,-0.231376 0.138841,-0.09422 0.24384,-0.07409 0.258713,0.04959 0.0077,0.06409 -0.01816,0.09916 -0.137305,0.186128 -0.08074,0.05894 -0.249781,0.151272 -0.375645,0.205186 -0.125863,0.05391 -0.326109,0.15747 -0.44499,0.230126 -0.118882,0.07266 -0.232159,0.132102 -0.251727,0.132102 -0.01957,0 -0.03558,0.01077 -0.03558,0.02393 0,0.01316 -0.0389,0.04692 -0.08646,0.07501 -0.186832,0.110364 -0.434883,0.406385 -0.61338,0.731999 -0.04846,0.08839 -0.122529,0.222503 -0.164607,0.298021 -0.132481,0.237765 -0.203366,0.401938 -0.309436,0.716668 -0.13173,0.390869 -0.280175,0.966816 -0.350057,1.358175 -0.01348,0.07552 -0.07558,0.356995 -0.137995,0.625504 -0.109351,0.470446 -0.162526,0.774613 -0.232039,1.327289 -0.04732,0.376233 -0.130727,0.635653 -0.348384,1.083589 -0.192429,0.396017 -0.264715,0.504205 -0.703075,1.052278 -0.430806,0.538629 -0.830609,1.085846 -1.230357,1.684007 -0.208959,0.312674 -0.90051,1.673912 -0.98137,1.931712 -0.08599,0.274157 -0.362931,0.682047 -0.714726,1.052677 -0.16291,0.171633 -0.674245,0.830234 -0.733392,0.944611 -0.02422,0.04683 -0.05842,0.172689 -0.076,0.279682 -0.01758,0.106993 -0.06618,0.324249 -0.107991,0.48279 -0.09842,0.373174 -0.09646,0.492288 0.01189,0.721321 0.102592,0.216857 0.522328,0.653217 0.522328,0.543015 z m 5.222436,-4.497038 c 0,-0.04196 0.0069,-0.05912 0.01539,-0.03814 0.0085,0.02098 0.0085,0.0553 0,0.07628 -0.0085,0.02098 -0.01539,0.0038 -0.01539,-0.03814 z m -0.06584,-0.152562 c 0,-0.01678 0.01454,-0.03051 0.03231,-0.03051 0.01777,0 0.02383,0.01373 0.01346,0.03051 -0.01037,0.01678 -0.02491,0.03051 -0.03231,0.03051 -0.0074,0 -0.01346,-0.01373 -0.01346,-0.03051 z m 0.316995,-2.584269 c 0.0021,-0.05905 0.01443,-0.08652 0.03138,-0.06965 0.01698,0.0169 0.01564,0.05527 -0.0034,0.09751 -0.02921,0.06484 -0.03114,0.06292 -0.02799,-0.02786 z m 0.4488,-10.2354892 c -0.01842,-0.05285 -0.0335,-0.1298186 -0.0335,-0.1710418 0,-0.041223 -0.03433,-0.1157457 -0.07628,-0.165606 -0.07839,-0.093163 -0.08989,-0.1370443 -0.05783,-0.2206076 0.02465,-0.064245 0.07308,-0.03074 0.07308,0.05056 0,0.035687 0.02944,0.096225 0.06543,0.1345298 0.03599,0.038305 0.07604,0.1353035 0.089,0.2155532 0.01296,0.08025 0.03305,0.1699376 0.04463,0.1993058 0.01442,0.036568 0.0065,0.053397 -0.02499,0.053397 -0.02533,0 -0.06112,-0.043241 -0.07954,-0.09609 z M 17.15834,26.69743 c 0,-0.06141 -0.354431,-0.492586 -0.404912,-0.492586 -0.04687,0 -0.01156,0.05804 0.176819,0.290652 0.172277,0.212723 0.228093,0.262137 0.228093,0.201934 z m 10.135707,-0.16356 c -0.02189,-0.0219 -0.03611,-0.0237 -0.03611,-0.0046 0,0.04073 0.03608,0.07681 0.05645,0.05645 0.0087,-0.0087 -4.82e-4,-0.03201 -0.02034,-0.05187 z M 17.33183,26.52145 c 0.01197,-0.03118 -0.0025,-0.06145 -0.0391,-0.08166 -0.03196,-0.01766 -0.143927,-0.114254 -0.248813,-0.214645 -0.226355,-0.216655 -0.251275,-0.192415 -0.04345,0.04227 0.08099,0.09145 0.173288,0.197175 0.205112,0.234934 0.06863,0.08143 0.100486,0.08625 0.126252,0.01911 z m 11.666475,0.0034 c 0.222193,-0.07839 0.226909,-0.09352 0.08254,-0.264734 -0.135978,-0.161261 -0.196401,-0.204613 -0.315217,-0.226158 -0.100454,-0.01822 -0.09333,0.01142 0.04845,0.201433 0.06713,0.08997 0.122049,0.167969 0.122049,0.173329 0,0.0054 -0.02852,0.0097 -0.06337,0.0097 -0.03486,0 -0.104564,-0.04119 -0.15491,-0.09154 -0.05035,-0.05035 -0.104642,-0.09154 -0.12066,-0.09154 -0.05519,0 -0.06202,0.08625 -0.01416,0.178804 0.08389,0.162224 0.189422,0.190344 0.415284,0.110655 z m -1.679339,-0.167031 c 0,-0.01897 0.01373,-0.02601 0.03051,-0.01563 0.01678,0.01037 0.03051,0.0064 0.03051,-0.0088 0,-0.01521 0.03089,-0.04311 0.06865,-0.062 0.06523,-0.03264 0.06409,-0.03401 -0.02288,-0.02755 -0.09749,0.0072 -0.145262,0.05246 -0.18299,0.173198 -0.02163,0.06923 -0.01965,0.07111 0.0264,0.02506 0.02739,-0.02739 0.04979,-0.06532 0.04979,-0.08429 z m 2.306464,-0.354176 c 0.0017,-0.209004 0.01749,-0.361361 0.0421,-0.407358 0.02542,-0.0475 0.03962,-0.1983 0.04017,-0.426599 6.74e-4,-0.282588 -0.01563,-0.420162 -0.0816,-0.688758 l -0.08244,-0.335636 0.03122,-0.656017 c 0.0734,-1.542047 0.100493,-2.447323 0.08266,-2.76166 -0.02184,-0.384843 -0.09032,-0.915609 -0.15548,-1.204951 -0.05714,-0.253756 -0.113384,-0.57129 -0.232381,-1.312033 -0.09723,-0.605236 -0.160657,-0.889489 -0.265533,-1.189983 -0.03221,-0.0923 -0.09047,-0.322722 -0.129456,-0.512049 -0.03899,-0.189327 -0.08106,-0.333498 -0.09349,-0.32038 -0.02027,0.02139 -0.06072,0.410761 -0.195813,1.885107 -0.02307,0.251727 -0.05758,0.608722 -0.0767,0.793322 -0.0777,0.750261 -0.05035,2.40689 0.04509,2.730859 0.02225,0.07552 0.09164,0.254016 0.154209,0.396661 0.310792,0.708568 0.349657,0.858522 0.455609,1.757889 0.05555,0.47156 0.06143,1.272135 0.01227,1.67214 l -0.03486,0.283688 0.118772,0.109238 c 0.09258,0.08515 0.110707,0.117399 0.0822,0.14624 -0.04019,0.04066 -0.09891,0.01025 -0.265668,-0.137579 -0.08606,-0.07629 -0.201212,-0.105993 -0.201212,-0.0519 0,0.04601 0.429403,0.566507 0.498008,0.603653 0.04995,0.02705 0.08695,0.0265 0.157422,-0.0023 l 0.09212,-0.03769 0.0028,-0.333879 z m -2.367489,0.258524 c 0,-0.01473 -0.0206,-0.02678 -0.04577,-0.02678 -0.02631,0 -0.04577,0.02754 -0.04577,0.06476 0,0.05411 0.0075,0.05851 0.04577,0.02678 0.02517,-0.02089 0.04577,-0.05003 0.04577,-0.06476 z m -0.135958,-0.02459 c -0.0096,-0.01558 0.01359,-0.03431 0.0516,-0.04161 0.05981,-0.0115 0.05781,-0.01384 -0.0148,-0.01744 -0.08041,-0.004 -0.106782,0.02383 -0.06357,0.06704 0.02988,0.02989 0.04702,0.02477 0.02678,-0.008 z m 0.502107,-0.03269 c 0,-0.01678 -0.06522,-0.02845 -0.144934,-0.02593 l -0.144934,0.0046 0.137306,0.02135 c 0.07552,0.01174 0.140738,0.02341 0.144933,0.02593 0.0042,0.0025 0.0076,-0.0091 0.0076,-0.02593 z m -0.525704,-0.116328 c 0.01831,-0.05492 -0.04476,-0.04338 -0.06604,0.01209 -0.0114,0.02972 -0.0046,0.04366 0.01771,0.03623 0.01994,-0.0066 0.04169,-0.02839 0.04833,-0.04832 z m 0.441794,0.0033 c -0.03776,-0.0073 -0.09955,-0.0073 -0.137305,0 -0.03776,0.0073 -0.0069,0.01322 0.06865,0.01322 0.07552,0 0.106412,-0.006 0.06865,-0.01322 z m -0.617875,-0.2917 c 0.03222,-0.01065 0.02101,-0.02498 -0.03788,-0.04842 -0.046,-0.01831 -0.103843,-0.02554 -0.12853,-0.01607 -0.03902,0.01497 -0.03855,0.0269 0.0036,0.09123 0.04028,0.06147 0.05429,0.06675 0.08276,0.0312 0.01885,-0.02354 0.05487,-0.04961 0.08004,-0.05793 z m 0.51871,-0.03652 c 0.08322,-0.03116 0.09553,-0.04464 0.05578,-0.06105 -0.02806,-0.01159 -0.07864,-0.0063 -0.112415,0.0118 -0.03377,0.01807 -0.113796,0.03449 -0.177831,0.03647 -0.114918,0.0036 -0.115241,0.0039 -0.02489,0.0269 0.125739,0.03199 0.137983,0.03133 0.259355,-0.01412 z m -0.856949,-0.271457 c -0.03163,-0.08747 -0.03135,-0.115951 0.0015,-0.155583 0.05702,-0.06871 0.01484,-0.09524 -0.07497,-0.04717 -0.06659,0.03564 -0.08403,0.03346 -0.1417,-0.01775 -0.06545,-0.05812 -0.06559,-0.05807 -0.03011,0.0096 0.01961,0.03738 0.0628,0.08248 0.09598,0.100239 0.03318,0.01776 0.06033,0.04602 0.06033,0.0628 0,0.04239 0.09667,0.185966 0.113728,0.168907 0.0077,-0.0077 -0.0035,-0.0621 -0.02479,-0.120993 z m 0.185677,0.05673 c 0,-0.02517 -0.0206,-0.04577 -0.04577,-0.04577 -0.04765,0 -0.06054,0.03609 -0.02543,0.0712 0.03511,0.03511 0.0712,0.02222 0.0712,-0.02543 z m 0.64076,-0.01706 c 0,-0.01579 -0.01373,-0.02871 -0.03051,-0.02871 -0.01678,0 -0.03051,0.02141 -0.03051,0.04757 0,0.02616 0.01373,0.03908 0.03051,0.02871 0.01678,-0.01037 0.03051,-0.03178 0.03051,-0.04757 z m -0.305124,-0.319537 c 0,-0.04872 -0.08109,-0.09594 -0.111879,-0.06515 -0.0097,0.0097 -0.0096,0.0389 3.6e-4,0.0648 0.0234,0.06098 0.11152,0.06126 0.11152,3.6e-4 z m -0.741966,-0.08104 c -0.0097,-0.02434 -0.01697,-0.01711 -0.01844,0.01844 -0.0013,0.03216 0.0059,0.05019 0.01603,0.04005 0.01014,-0.01014 0.01122,-0.03646 0.0024,-0.05848 z m -0.05136,-0.07429 c 0,-0.05423 -0.02371,-0.05319 -0.08041,0.0035 -0.05807,0.05807 -0.02422,0.125365 0.03735,0.07426 0.02368,-0.01965 0.04305,-0.05465 0.04305,-0.07776 z m -0.182027,-0.09543 c -0.04231,-0.140844 -0.06737,-0.190702 -0.09585,-0.190702 -0.04571,0 -0.03032,0.09227 0.01852,0.111015 0.02517,0.0097 0.04577,0.04127 0.04577,0.07024 0,0.04608 0.02468,0.09336 0.04872,0.09336 0.0044,0 -0.0033,-0.03776 -0.01716,-0.08391 z m 0.853299,-0.238477 c 0,-0.02628 -0.01355,-0.07309 -0.03011,-0.10403 -0.01858,-0.03473 -0.02009,-0.109861 -0.0039,-0.196324 0.0148,-0.07923 0.01462,-0.140069 -4.06e-4,-0.140069 -0.01461,0 -0.02666,0.01716 -0.02676,0.03814 -9.1e-5,0.02098 -0.01922,0.07463 -0.04249,0.119223 -0.02377,0.04555 -0.03075,0.09264 -0.01594,0.107446 0.02231,0.02231 0.04762,0.112373 0.05635,0.200505 0.0045,0.04504 0.06329,0.02191 0.06329,-0.02489 z m -1.102601,-0.203952 c -0.003,-0.0725 -0.0077,-0.08058 -0.01744,-0.03006 -0.0073,0.03801 -0.02587,0.06132 -0.04126,0.05181 -0.01539,-0.0095 -0.0198,0.004 -0.0098,0.03006 0.03162,0.08241 0.07283,0.05124 0.06851,-0.05181 z m 0.634716,-0.03599 c -0.0064,-0.01798 -0.06843,-0.02898 -0.138022,-0.02448 -0.07078,0.0046 -0.12639,-0.0055 -0.12639,-0.02288 0,-0.01709 -0.02746,-0.03107 -0.06102,-0.03107 -0.07489,0 -0.08216,0.06018 -0.0076,0.06317 0.04568,0.0018 0.04458,0.0059 -0.0076,0.02848 -0.04138,0.01786 0.0055,0.02523 0.145649,0.02289 0.132446,-0.0022 0.202497,-0.01518 0.195044,-0.03611 z m -0.759119,-0.139453 c -0.0078,-0.05302 3.91e-4,-0.09199 0.01942,-0.09262 0.01807,-5.95e-4 -1.22e-4,-0.01936 -0.04044,-0.0417 -0.0725,-0.04018 -0.186061,-0.0328 -0.186061,0.01209 0,0.0373 0.08,0.09309 0.101973,0.07111 0.01104,-0.01104 0.02008,0.0074 0.02008,0.04095 0,0.0663 0.02422,0.101708 0.06957,0.101708 0.01589,0 0.02284,-0.04119 0.01545,-0.09154 z m 0.115768,-0.08399 c -0.0352,-0.0352 -0.05326,0.01993 -0.02926,0.08931 l 0.02455,0.07095 0.01121,-0.07127 c 0.0062,-0.0392 0.0032,-0.07925 -0.0065,-0.089 z m 0.987042,-0.305047 c 0.0012,-0.0881 -0.0082,-0.160141 -0.02074,-0.160082 -0.01259,6.1e-5 -0.02427,0.09961 -0.02597,0.221215 -0.0019,0.134725 0.0062,0.197266 0.02074,0.160082 0.01311,-0.03356 0.0248,-0.13311 0.02597,-0.221215 z m -0.05888,0.114422 c 0,-0.01678 -0.01373,-0.03051 -0.03051,-0.03051 -0.01678,0 -0.03051,0.01373 -0.03051,0.03051 0,0.01678 0.01373,0.03051 0.03051,0.03051 0.01678,0 0.03051,-0.01373 0.03051,-0.03051 z m -0.03098,-0.144934 c -8.06e-4,-0.09224 -0.05224,-0.1502 -0.09518,-0.107259 -0.02921,0.02921 -0.02521,0.05038 0.01871,0.09891 0.06825,0.07542 0.07706,0.07638 0.07647,0.0083 z m 0.42764,-0.249548 c 0,-0.01798 -0.01373,-0.03269 -0.03051,-0.03269 -0.01678,0 -0.03051,0.01261 -0.03051,0.02802 0,0.01541 -0.0095,0.05317 -0.02118,0.08391 -0.01984,0.05235 -0.0179,0.05265 0.03051,0.0047 0.02843,-0.02817 0.05169,-0.06593 0.05169,-0.08391 z m -0.579735,0.01308 c 0,-0.04475 -0.01576,-0.07313 -0.03814,-0.06865 -0.02662,0.0053 -0.03499,-0.028 -0.02772,-0.110317 0.007,-0.07957 -4.18e-4,-0.111249 -0.02288,-0.09736 -0.04174,0.0258 -0.04422,0.230566 -0.0028,0.230566 0.01678,0 0.03051,0.02746 0.03051,0.06103 0,0.03356 0.01373,0.06103 0.03051,0.06103 0.01678,0 0.03051,-0.03433 0.03051,-0.07628 z M 26.45206,23.31395 c -0.03333,-0.03333 -0.05619,0.01968 -0.03226,0.07481 0.02269,0.05228 0.02434,0.05223 0.03698,-0.0011 0.0073,-0.03068 0.0052,-0.06386 -0.0047,-0.07374 z m 0.507609,-0.02481 c 0.0094,-0.0094 0.01005,-0.04369 0.0015,-0.07628 -0.0227,-0.08682 -0.09991,-0.07367 -0.09991,0.01702 0,0.06949 0.05502,0.102625 0.09839,0.05926 z m -0.600563,-0.280473 c -0.004,-0.07971 -0.0094,-0.160882 -0.01194,-0.180374 -0.006,-0.04605 -0.112351,-0.03086 -0.108339,0.01547 0.009,0.103731 0.01349,0.11096 0.04153,0.06663 0.01561,-0.02469 0.03891,-0.03436 0.05177,-0.0215 0.01286,0.01286 0.0066,0.05023 -0.01386,0.08302 -0.0294,0.04708 -0.02922,0.07248 8.67e-4,0.120662 0.02096,0.03356 0.04018,0.06102 0.04271,0.06102 0.0025,0 0.0013,-0.06522 -0.0027,-0.144934 z M 27.28019,22.79953 c -0.01014,-0.01014 -0.03646,-0.01122 -0.05848,-0.0024 -0.02434,0.0097 -0.01711,0.01697 0.01844,0.01843 0.03217,0.0013 0.05019,-0.0059 0.04005,-0.01603 z m -0.113786,-0.10181 c 0,-0.03257 -0.01373,-0.06771 -0.03051,-0.07808 -0.01731,-0.01069 -0.03051,0.01494 -0.03051,0.05922 0,0.04294 0.01373,0.07808 0.03051,0.07808 0.01678,0 0.03051,-0.02665 0.03051,-0.05922 z m -0.88486,-0.06283 c 0,-0.0339 0.02034,-0.06102 0.04577,-0.06102 0.02517,0 0.04577,-0.01339 0.04577,-0.02975 0,-0.02628 -0.125688,-0.01769 -0.236471,0.01618 -0.05819,0.01779 -0.04567,0.0564 0.03051,0.09413 0.101021,0.05003 0.114421,0.04774 0.114421,-0.01953 z m 0.732298,0.02402 c 0,-0.01321 -0.02746,-0.02402 -0.06103,-0.02402 -0.03356,0 -0.06103,0.01288 -0.06103,0.02862 0,0.01574 0.02746,0.02655 0.06103,0.02402 0.03356,-0.0025 0.06103,-0.01541 0.06103,-0.02862 z m -0.251727,-0.135011 c 0.1568,-0.03011 0.115302,-0.06507 -0.04577,-0.03855 -0.07971,0.01312 -0.169773,0.02467 -0.200131,0.02567 -0.03194,0.0011 -0.0465,0.01589 -0.03456,0.0352 0.0116,0.01877 0.0558,0.02536 0.100966,0.01505 0.04418,-0.01008 0.124957,-0.0269 0.179498,-0.03738 z m 0.07628,0.02976 c -0.02098,-0.0085 -0.0553,-0.0085 -0.07628,0 -0.02098,0.0085 -0.0038,0.01539 0.03814,0.01539 0.04196,0 0.05912,-0.0069 0.03814,-0.01539 z M 21.33807,9.5689198 c 3.05e-4,-0.034162 -0.01548,-0.046317 -0.0453,-0.034876 -0.04688,0.017989 -0.06224,0.1064373 -0.02497,0.1437131 0.02651,0.02651 0.06966,-0.040322 0.07027,-0.1088371 z M 21.228474,9.4136132 c 0.02703,-0.044157 0.02195,-0.063972 -0.02545,-0.099165 -0.06646,-0.049351 -0.187537,-0.058526 -0.2137,-0.016193 -0.02415,0.039078 0.111389,0.1873238 0.162865,0.1781314 0.02337,-0.00417 0.0577,-0.032422 0.07628,-0.062773 z m -1.249508,0.01228 c 0.0094,-0.015206 0.04152,-0.021259 0.07138,-0.013451 0.08902,0.02328 0.475725,-0.07022 0.644832,-0.1559126 0.171534,-0.086923 0.21619,-0.1597882 0.21619,-0.3527623 0,-0.188389 0.04591,-0.2465648 0.359015,-0.4549855 1.031327,-0.6864977 2.670908,-1.2676551 3.767786,-1.3355098 l 0.297495,-0.018404 -4.48e-4,-0.1098123 c -2.44e-4,-0.060397 -0.01759,-0.1436871 -0.03854,-0.18509 -0.03683,-0.072791 -0.04715,-0.074968 -0.312302,-0.065905 -0.287775,0.00984 -0.841059,0.1163166 -1.530284,0.2945053 -0.22557,0.058318 -0.433419,0.1055958 -0.461887,0.1050621 -0.10814,-0.00203 0.05552,-0.084164 0.263005,-0.1319926 1.282794,-0.2957072 1.483195,-0.3346981 1.864644,-0.3627906 l 0.104563,-0.0077 -0.07575,-0.08771 c -0.07421,-0.085931 -0.07899,-0.087014 -0.235744,-0.053397 -0.206289,0.044241 -0.440298,0.043928 -0.484875,-6.499e-4 -0.04289,-0.042891 -0.01626,-0.2049054 0.04539,-0.2760856 0.02462,-0.028431 0.105065,-0.076488 0.178761,-0.1067934 0.0737,-0.030305 0.129716,-0.068103 0.124488,-0.083994 C 24.771485,6.006624 24.610179,5.8729259 24.41829,5.7254089 24.056216,5.4470605 23.88458,5.3620438 23.537174,5.2889648 c -0.110821,-0.023312 -0.242365,-0.058121 -0.292319,-0.077354 -0.119101,-0.045855 -0.496419,-0.048335 -0.541197,-0.00356 -0.01913,0.019127 -0.06212,0.034776 -0.09553,0.034776 -0.0586,0 -0.05875,-0.00147 -0.0042,-0.041356 0.07582,-0.055443 0.04004,-0.1417169 -0.05879,-0.1417169 -0.05901,0 -0.08721,0.024847 -0.121594,0.1071366 -0.03868,0.092575 -0.08386,0.125283 -0.33241,0.2406421 -0.45282,0.2101685 -0.783763,0.5787271 -1.009648,1.1244082 -0.06001,0.1449608 -0.109303,0.2883708 -0.109547,0.3186889 -2.44e-4,0.030318 -0.02286,0.1169115 -0.05027,0.1924297 -0.05082,0.1400449 -0.07229,0.7523169 -0.04146,1.1821349 l 0.01366,0.1904825 -0.222765,0.2124105 c -0.140047,0.1335369 -0.214361,0.2260095 -0.200131,0.2490336 0.01431,0.023159 0.0097,0.028638 -0.01251,0.014903 -0.03324,-0.020545 -0.583704,0.4869119 -0.584278,0.5386304 -3.6e-4,0.032363 0.0842,0.028518 0.104769,-0.00476 z m 1.551455,-0.2756071 c 0.10302,-0.096353 0.120935,-0.1278109 0.09036,-0.1586645 -0.02098,-0.021166 -0.03814,-0.070404 -0.03814,-0.1094174 0,-0.047116 -0.02499,-0.080435 -0.07443,-0.09923 -0.04094,-0.015563 -0.09085,-0.059848 -0.110927,-0.09841 -0.02007,-0.038562 -0.0412,-0.075527 -0.04694,-0.082143 -0.0057,-0.00662 -0.05747,0.020199 -0.11496,0.05959 -0.08003,0.054838 -0.116908,0.1125294 -0.157386,0.2462188 -0.06311,0.208447 -0.04686,0.2707008 0.07068,0.2707008 0.04766,0 0.113315,0.020159 0.145891,0.044798 0.08371,0.063311 0.0926,0.060541 0.235856,-0.073442 z m 3.376564,-2.7505125 c 0.08474,-0.018173 0.154064,-0.042578 0.154064,-0.054236 0,-0.050279 -0.103946,-0.1630509 -0.175293,-0.1901767 -0.150574,-0.057249 -0.37393,0.0805 -0.37393,0.2306112 0,0.057114 0.166143,0.062917 0.395159,0.013801 z"
       id="path1653" />
  </g>
  <g
     inkscape:groupmode="layer"
     id="layer2"
     inkscape:label="Layer 2"
     style="display:inline">
    <path
       style="fill:none;stroke:#000000;stroke-width:0.264583px;stroke-linecap:butt;stroke-linejoin:miter;stroke-opacity:1"
       d="m 28.889706,44.547371 c 1.517806,-0.316621 3.104078,-0.265234 3.686058,-0.472686 0.58198,-0.207452 1.031542,-0.02873 0.230463,-1.4132 -0.801076,-1.384469 -1.641049,-6.256864 -2.184207,-7.195585 -0.543158,-0.93872 -2.081432,-3.615192 -2.179616,-5.656886 -0.09819,-2.041695 -0.235056,-2.985871 0.160425,-3.135043 0.395483,-0.149172 0.779195,-0.02318 1.022617,-0.670303 0.243424,-0.647135 -0.04873,-3.50226 0.149828,-5.014066 0.198557,-1.511806 -0.869617,-5.219466 -0.99286,-5.733048 -0.123242,-0.513583 -0.461065,5.128975 -0.333234,5.9321 0.12783,0.803125 -4.950137,0.586423 -5.603172,1.485054 -0.653034,0.898632 -1.803114,-1.706835 -1.03394,-2.61478 0.769173,-0.907945 2.456212,-3.286716 2.250612,-3.587537 -0.205601,-0.300822 -2.697915,4.86514 -3.78663,5.314983 -1.088715,0.449844 -1.688412,1.26038 -1.923463,1.835513 -0.23505,0.575133 -0.470101,2.162961 -0.739456,2.263616 -0.269356,0.100655 -0.321801,-0.25672 -0.381163,-0.495018 -0.05936,-0.238298 -0.38757,0.03568 -0.143854,0.583321 0.243716,0.547643 0.208508,0.499405 -0.143361,0.791978 -0.351869,0.292571 -1.025116,-0.917268 -0.491064,-1.796414 0.534052,-0.879146 2.097456,-3.526819 3.336802,-5.371367 1.239345,-1.844548 1.766529,-4.971374 2.311119,-6.291664 0.544591,-1.32029 1.860148,-1.918593 2.02906,-2.033577 0.168911,-0.114984 -0.01828,0.09042 0.193969,-0.09649 0.212252,-0.186912 -0.896468,0.707586 -1.678438,0.809777 -0.78197,0.102191 -0.768206,-0.672206 -0.676939,-0.885798 0.09127,-0.213593 0.141454,-0.338953 -0.114137,-0.429303 -0.255591,-0.09035 -0.464671,0.108245 -0.547121,-0.328642 -0.08245,-0.4368869 -0.539581,-0.8940186 -0.539581,-0.8940186 0,0 -0.346756,0.1169522 -0.789469,-0.022394 -0.442713,-0.1393454 0.647517,-0.7349175 0.914915,-1.0102175 0.267398,-0.2752997 -0.419614,-1.7300024 0.342713,-2.3544749 0.762326,-0.6244725 1.047634,-1.0352111 1.287273,-1.0290701 0.239638,0.00614 0.864958,-0.1252898 1.467549,0.2505794 0.602591,0.3758695 1.204947,1.0382623 1.34426,1.8121569 0.139312,0.7738946 0.497535,-0.2078831 0.579767,0.4822344 0.08223,0.6901172 0.455922,1.5538158 0.08223,1.6617304 -0.373689,0.1079148 0.642329,1.523735 1.728716,2.3618 1.086387,0.838065 0.988272,3.175655 1.104668,3.350213 0.116395,0.174559 -0.505254,5.95003 -0.286155,6.935972 0.219099,0.985942 -5.906992,0.06819 -6.351919,1.685522 -0.444928,1.617328 0.349445,5.199558 -0.107104,5.996613 -0.456549,0.797055 -2.419257,11.175423 -3.802457,11.578045 -1.383199,0.402621 -0.657294,0.22997 -1.55204,-0.03699 -0.894745,-0.266957 -2.186324,-0.698516 -1.519994,0.221781 0.66633,0.920298 0.865036,0.923899 2.551676,1.754198 1.68664,0.830297 1.113976,1.756135 1.686637,0.830265 0.572661,-0.925869 0.404112,-1.768006 1.677482,-3.484149 1.27337,-1.716146 1.702529,-5.069332 2.250416,-5.981301 0.547887,-0.911968 1.695355,-3.034387 1.695355,-3.034387 0,0 2.591039,3.363034 3.59985,5.873065 1.008811,2.51003 2.45568,5.003686 1.684319,5.623994 -0.771364,0.620307 -2.565231,0.263003 -2.515113,0.776443 0.05011,0.513443 0.299513,1.053486 1.047705,0.857451 z"
       id="path1984" />
  </g>
</svg>
